<?xml version="1.0" encoding="us-ascii" standalone="no"?><svg xmlns="http://www.w3.org/2000/svg" xmlns:xlink="http://www.w3.org/1999/xlink" contentStyleType="text/css" height="1485px" preserveAspectRatio="none" style="width:1476px;height:1485px;background:#FFFFFF;" version="1.1" viewBox="0 0 1476 1485" width="1476px" zoomAndPan="magnify"><defs><filter height="1" id="b5j9cqn3g2prt0" width="1" x="0" y="0"><feFlood flood-color="#90EE90" result="flood"/><feComposite in="SourceGraphic" in2="flood" operator="over"/></filter><filter height="1" id="b5j9cqn3g2prt1" width="1" x="0" y="0"><feFlood flood-color="#DDA0DD" result="flood"/><feComposite in="SourceGraphic" in2="flood" operator="over"/></filter><filter height="1" id="b5j9cqn3g2prt2" width="1" x="0" y="0"><feFlood flood-color="#ADD8E6" result="flood"/><feComposite in="SourceGraphic" in2="flood" operator="over"/></filter></defs><g><text fill="#000000" font-family="sans-serif" font-size="14" font-weight="bold" lengthAdjust="spacing" textLength="437" x="512.5" y="25.1074">Keyple - keyple-distributed-remote-java-api - 3.1.+ (2024-09-02)</text><rect fill="#DDDDDD" height="103.1055" id="_legend" rx="7.5" ry="7.5" style="stroke:#000000;stroke-width:1.0;" width="558" x="452" y="51.6211"/><text fill="#000000" font-family="sans-serif" font-size="14" lengthAdjust="spacing" text-decoration="underline" textLength="88" x="457" y="71.7285">Colors legend</text><text fill="#000000" font-family="sans-serif" font-size="14" lengthAdjust="spacing" textLength="4" x="549" y="71.7285">:</text><ellipse cx="462.5" cy="86.3633" fill="#000000" rx="2.5" ry="2.5" style="stroke:#000000;stroke-width:0.0;"/><text fill="#000000" font-family="sans-serif" font-size="14" lengthAdjust="spacing" text-decoration="underline" textLength="257" x="469" y="90.3496">Keyple Distributed solution usage modes</text><text fill="#000000" font-family="sans-serif" font-size="14" lengthAdjust="spacing" textLength="4" x="730" y="90.3496">:</text><rect fill="#000000" height="3.5" style="stroke:#000000;stroke-width:0.0;" width="3.5" x="466" y="102.4844"/><text fill="#000000" filter="url(#b5j9cqn3g2prt0)" font-family="sans-serif" font-size="14" font-weight="bold" lengthAdjust="spacing" textLength="131" x="473" y="108.9707">Reader Client Side</text><text fill="#000000" font-family="sans-serif" font-size="14" lengthAdjust="spacing" textLength="117" x="608" y="108.9707">(Remote Plugin on</text><text fill="#000000" font-family="sans-serif" font-size="14" font-weight="bold" lengthAdjust="spacing" textLength="48" x="729" y="108.9707">Server</text><text fill="#000000" font-family="sans-serif" font-size="14" lengthAdjust="spacing" textLength="5" x="777" y="108.9707">)</text><rect fill="#000000" height="3.5" style="stroke:#000000;stroke-width:0.0;" width="3.5" x="466" y="121.1055"/><text fill="#000000" filter="url(#b5j9cqn3g2prt1)" font-family="sans-serif" font-size="14" font-weight="bold" lengthAdjust="spacing" textLength="138" x="473" y="127.5918">Reader Server Side</text><text fill="#000000" font-family="sans-serif" font-size="14" lengthAdjust="spacing" textLength="117" x="615" y="127.5918">(Remote Plugin on</text><text fill="#000000" font-family="sans-serif" font-size="14" font-weight="bold" lengthAdjust="spacing" textLength="41" x="736" y="127.5918">Client</text><text fill="#000000" font-family="sans-serif" font-size="14" lengthAdjust="spacing" textLength="24" x="781" y="127.5918">with</text><text fill="#000000" font-family="sans-serif" font-size="14" font-weight="bold" lengthAdjust="spacing" textLength="44" x="809" y="127.5918">Plugin</text><text fill="#000000" font-family="sans-serif" font-size="14" lengthAdjust="spacing" textLength="13" x="857" y="127.5918">or</text><text fill="#000000" font-family="sans-serif" font-size="14" font-weight="bold" lengthAdjust="spacing" textLength="126" x="874" y="127.5918">ObservablePlugin</text><text fill="#000000" font-family="sans-serif" font-size="14" lengthAdjust="spacing" textLength="5" x="1000" y="127.5918">)</text><rect fill="#000000" height="3.5" style="stroke:#000000;stroke-width:0.0;" width="3.5" x="466" y="139.7266"/><text fill="#000000" filter="url(#b5j9cqn3g2prt2)" font-family="sans-serif" font-size="14" font-weight="bold" lengthAdjust="spacing" textLength="138" x="473" y="146.2129">Reader Server Side</text><text fill="#000000" font-family="sans-serif" font-size="14" lengthAdjust="spacing" textLength="117" x="615" y="146.2129">(Remote Plugin on</text><text fill="#000000" font-family="sans-serif" font-size="14" font-weight="bold" lengthAdjust="spacing" textLength="41" x="736" y="146.2129">Client</text><text fill="#000000" font-family="sans-serif" font-size="14" lengthAdjust="spacing" textLength="24" x="781" y="146.2129">with</text><text fill="#000000" font-family="sans-serif" font-size="14" font-weight="bold" lengthAdjust="spacing" textLength="75" x="809" y="146.2129">PoolPlugin</text><text fill="#000000" font-family="sans-serif" font-size="14" lengthAdjust="spacing" textLength="5" x="884" y="146.2129">)</text><!--cluster api--><g id="cluster_api"><path d="M8.5,173.7402 L309.5,173.7402 A3.75,3.75 0 0 1 312,176.2402 L319,198.3613 L1466.5,198.3613 A2.5,2.5 0 0 1 1469,200.8613 L1469,1476.2402 A2.5,2.5 0 0 1 1466.5,1478.7402 L8.5,1478.7402 A2.5,2.5 0 0 1 6,1476.2402 L6,176.2402 A2.5,2.5 0 0 1 8.5,173.7402 " fill="#F8F9F9" style="stroke:#000000;stroke-width:1.5;"/><line style="stroke:#000000;stroke-width:1.5;" x1="6" x2="319" y1="198.3613" y2="198.3613"/><text fill="#000000" font-family="sans-serif" font-size="14" font-weight="bold" lengthAdjust="spacing" textLength="300" x="10" y="190.8477">org.eclipse.keyple.core.distributed.remote</text></g><!--cluster spi--><g id="cluster_spi"><path d="M606.5,218.7402 L628.5,218.7402 A3.75,3.75 0 0 1 631,221.2402 L638,243.3613 L1442.5,243.3613 A2.5,2.5 0 0 1 1445,245.8613 L1445,1452.2402 A2.5,2.5 0 0 1 1442.5,1454.7402 L606.5,1454.7402 A2.5,2.5 0 0 1 604,1452.2402 L604,221.2402 A2.5,2.5 0 0 1 606.5,218.7402 " fill="#F2F3F4" style="stroke:#000000;stroke-width:1.5;"/><line style="stroke:#000000;stroke-width:1.5;" x1="604" x2="638" y1="243.3613" y2="243.3613"/><text fill="#000000" font-family="sans-serif" font-size="14" font-weight="bold" lengthAdjust="spacing" textLength="21" x="608" y="235.8477">spi</text></g><!--class ApiProperties--><g id="elem_ApiProperties"><rect codeLine="62" fill="#E9F7EF" height="66.6211" id="ApiProperties" rx="2.5" ry="2.5" style="stroke:#27AE60;stroke-width:2.0;" width="279" x="308.5" y="283.2402"/><ellipse cx="323.5" cy="299.2402" fill="#ADD1B2" rx="11" ry="11" style="stroke:#181818;stroke-width:1.0;"/><path d="M326.2656,295.1152 Q326.4219,294.8965 326.6094,294.7871 Q326.7969,294.6777 327.0156,294.6777 Q327.3906,294.6777 327.625,294.9434 Q327.8594,295.1934 327.8594,295.8027 L327.8594,297.2559 Q327.8594,297.8652 327.625,298.1309 Q327.3906,298.3965 327.0156,298.3965 Q326.6719,298.3965 326.4688,298.1934 Q326.2656,298.0059 326.1563,297.4902 Q326.1094,297.1309 325.9219,296.9434 Q325.5938,296.5684 324.9844,296.3496 Q324.375,296.1309 323.75,296.1309 Q322.9844,296.1309 322.3438,296.459 Q321.7188,296.7871 321.2188,297.5371 Q320.7344,298.2871 320.7344,299.3184 L320.7344,300.4121 Q320.7344,301.6465 321.625,302.4746 Q322.5156,303.2871 324.1094,303.2871 Q325.0469,303.2871 325.7031,303.0371 Q326.0938,302.8809 326.5156,302.4434 Q326.7813,302.1777 326.9219,302.0996 Q327.0781,302.0215 327.2813,302.0215 Q327.6094,302.0215 327.8594,302.2871 Q328.125,302.5371 328.125,302.8809 Q328.125,303.2246 327.7813,303.6309 Q327.2813,304.209 326.4844,304.5371 Q325.4063,304.9902 324.1094,304.9902 Q322.5938,304.9902 321.3906,304.3652 Q320.4063,303.8652 319.7188,302.8027 Q319.0313,301.7246 319.0313,300.4434 L319.0313,299.2871 Q319.0313,297.959 319.6406,296.8184 Q320.2656,295.6621 321.3594,295.0527 Q322.4531,294.4277 323.6875,294.4277 Q324.4219,294.4277 325.0625,294.5996 Q325.7188,294.7559 326.2656,295.1152 Z " fill="#000000"/><ellipse cx="342.5" cy="298.7402" fill="#84BE84" rx="3" ry="3" style="stroke:#038048;stroke-width:1.0;"/><text fill="#000000" font-family="sans-serif" font-size="14" font-weight="bold" lengthAdjust="spacing" textLength="30" x="348.5" y="305.0371">final</text><text fill="#000000" font-family="sans-serif" font-size="14" lengthAdjust="spacing" textLength="202" x="382.5" y="305.0371">DistributedRemoteApiProperties</text><line style="stroke:#27AE60;stroke-width:2.0;" x1="309.5" x2="586.5" y1="315.2402" y2="315.2402"/><ellipse cx="319.5" cy="330.0508" fill="none" rx="3" ry="3" style="stroke:#038048;stroke-width:1.0;"/><text fill="#000000" font-family="sans-serif" font-size="14" font-weight="bold" lengthAdjust="spacing" text-decoration="underline" textLength="30" x="328.5" y="334.3477">final</text><text fill="#000000" font-family="sans-serif" font-size="14" lengthAdjust="spacing" text-decoration="underline" textLength="101" x="362.5" y="334.3477">String VERSION</text><line style="stroke:#27AE60;stroke-width:2.0;" x1="309.5" x2="586.5" y1="341.8613" y2="341.8613"/></g><!--class RemotePluginApi--><g id="elem_RemotePluginApi"><rect codeLine="65" fill="#FEFECE" height="81.2422" id="RemotePluginApi" rx="2.5" ry="2.5" style="stroke:#D4AC0D;stroke-width:2.0;" width="266" x="284" y="658.2402"/><ellipse cx="353.25" cy="674.2402" fill="#B4A7E5" rx="11" ry="11" style="stroke:#181818;stroke-width:1.0;"/><path d="M354.2031,670.8809 L354.2031,677.5371 L355.9219,677.5371 Q356.5313,677.5371 356.7969,677.7715 Q357.0625,678.0059 357.0625,678.3965 Q357.0625,678.7715 356.7969,679.0059 Q356.5313,679.2402 355.9219,679.2402 L350.7813,679.2402 Q350.1719,679.2402 349.9063,679.0059 Q349.6406,678.7715 349.6406,678.3809 Q349.6406,678.0059 349.9063,677.7715 Q350.1719,677.5371 350.7813,677.5371 L352.5,677.5371 L352.5,670.8809 L350.7813,670.8809 Q350.1719,670.8809 349.9063,670.6465 Q349.6406,670.4121 349.6406,670.0215 Q349.6406,669.6465 349.9063,669.4121 Q350.1719,669.1777 350.7813,669.1777 L355.9219,669.1777 Q356.5313,669.1777 356.7969,669.4121 Q357.0625,669.6465 357.0625,670.0215 Q357.0625,670.4121 356.7969,670.6465 Q356.5313,670.8809 355.9219,670.8809 L354.2031,670.8809 Z " fill="#000000"/><ellipse cx="378.75" cy="673.7402" fill="#84BE84" rx="3" ry="3" style="stroke:#038048;stroke-width:1.0;"/><text fill="#000000" font-family="sans-serif" font-size="14" font-style="italic" lengthAdjust="spacing" textLength="108" x="384.75" y="680.0371">RemotePluginApi</text><line style="stroke:#D4AC0D;stroke-width:2.0;" x1="285" x2="549" y1="690.2402" y2="690.2402"/><ellipse cx="295" cy="727.6719" fill="#84BE84" rx="3" ry="3" style="stroke:#038048;stroke-width:1.0;"/><text fill="#000000" font-family="sans-serif" font-size="14" lengthAdjust="spacing" textLength="240" x="304" y="731.9688">void onReaderEvent (String jsonData)</text><line style="stroke:#D4AC0D;stroke-width:1.0;stroke-dasharray:1.0,2.0;" x1="285" x2="348" y1="707.5508" y2="707.5508"/><text fill="#000000" filter="url(#b5j9cqn3g2prt1)" font-family="sans-serif" font-size="14" font-weight="bold" lengthAdjust="spacing" textLength="138" x="348" y="712.8477">Reader Server Side</text><line style="stroke:#D4AC0D;stroke-width:1.0;stroke-dasharray:1.0,2.0;" x1="486" x2="549" y1="707.5508" y2="707.5508"/></g><!--class ObservableRemotePluginApi--><g id="elem_ObservableRemotePluginApi"><rect codeLine="69" fill="#FEFECE" height="141.1055" id="ObservableRemotePluginApi" rx="2.5" ry="2.5" style="stroke:#D4AC0D;stroke-width:2.0;" width="566" x="22" y="919.2402"/><ellipse cx="205.25" cy="935.2402" fill="#B4A7E5" rx="11" ry="11" style="stroke:#181818;stroke-width:1.0;"/><path d="M206.2031,931.8809 L206.2031,938.5371 L207.9219,938.5371 Q208.5313,938.5371 208.7969,938.7715 Q209.0625,939.0059 209.0625,939.3965 Q209.0625,939.7715 208.7969,940.0059 Q208.5313,940.2402 207.9219,940.2402 L202.7813,940.2402 Q202.1719,940.2402 201.9063,940.0059 Q201.6406,939.7715 201.6406,939.3809 Q201.6406,939.0059 201.9063,938.7715 Q202.1719,938.5371 202.7813,938.5371 L204.5,938.5371 L204.5,931.8809 L202.7813,931.8809 Q202.1719,931.8809 201.9063,931.6465 Q201.6406,931.4121 201.6406,931.0215 Q201.6406,930.6465 201.9063,930.4121 Q202.1719,930.1777 202.7813,930.1777 L207.9219,930.1777 Q208.5313,930.1777 208.7969,930.4121 Q209.0625,930.6465 209.0625,931.0215 Q209.0625,931.4121 208.7969,931.6465 Q208.5313,931.8809 207.9219,931.8809 L206.2031,931.8809 Z " fill="#000000"/><ellipse cx="230.75" cy="934.7402" fill="#84BE84" rx="3" ry="3" style="stroke:#038048;stroke-width:1.0;"/><text fill="#000000" font-family="sans-serif" font-size="14" font-style="italic" lengthAdjust="spacing" textLength="180" x="236.75" y="941.0371">ObservableRemotePluginApi</text><line style="stroke:#D4AC0D;stroke-width:2.0;" x1="23" x2="587" y1="951.2402" y2="951.2402"/><ellipse cx="33" cy="988.6719" fill="#84BE84" rx="3" ry="3" style="stroke:#038048;stroke-width:1.0;"/><text fill="#000000" font-family="sans-serif" font-size="14" lengthAdjust="spacing" textLength="540" x="42" y="992.9688">void addRemoteReader (RemoteReaderSpi remoteReaderSpi, int clientCoreApiLevel)</text><ellipse cx="33" cy="1007.293" fill="#84BE84" rx="3" ry="3" style="stroke:#038048;stroke-width:1.0;"/><text fill="#000000" font-family="sans-serif" font-size="14" lengthAdjust="spacing" textLength="355" x="42" y="1011.5898">void removeRemoteReader (String remoteReaderName)</text><line style="stroke:#D4AC0D;stroke-width:1.0;stroke-dasharray:1.0,2.0;" x1="23" x2="239.5" y1="968.5508" y2="968.5508"/><text fill="#000000" filter="url(#b5j9cqn3g2prt0)" font-family="sans-serif" font-size="14" font-weight="bold" lengthAdjust="spacing" textLength="131" x="239.5" y="973.8477">Reader Client Side</text><line style="stroke:#D4AC0D;stroke-width:1.0;stroke-dasharray:1.0,2.0;" x1="370.5" x2="587" y1="968.5508" y2="968.5508"/><ellipse cx="33" cy="1048.5352" fill="#84BE84" rx="3" ry="3" style="stroke:#038048;stroke-width:1.0;"/><text fill="#000000" font-family="sans-serif" font-size="14" lengthAdjust="spacing" textLength="232" x="42" y="1052.832">void onPluginEvent (String jsonData)</text><line style="stroke:#D4AC0D;stroke-width:1.0;stroke-dasharray:1.0,2.0;" x1="23" x2="236" y1="1028.4141" y2="1028.4141"/><text fill="#000000" filter="url(#b5j9cqn3g2prt1)" font-family="sans-serif" font-size="14" font-weight="bold" lengthAdjust="spacing" textLength="138" x="236" y="1033.7109">Reader Server Side</text><line style="stroke:#D4AC0D;stroke-width:1.0;stroke-dasharray:1.0,2.0;" x1="374" x2="587" y1="1028.4141" y2="1028.4141"/></g><!--class RemotePluginFactorySpi--><g id="elem_RemotePluginFactorySpi"><rect codeLine="78" fill="#FDEDEC" height="122.4844" id="RemotePluginFactorySpi" rx="2.5" ry="2.5" style="stroke:#E74C3C;stroke-width:2.0;" width="312" x="739" y="255.7402"/><ellipse cx="807.25" cy="271.7402" fill="#B4A7E5" rx="11" ry="11" style="stroke:#181818;stroke-width:1.0;"/><path d="M808.2031,268.3809 L808.2031,275.0371 L809.9219,275.0371 Q810.5313,275.0371 810.7969,275.2715 Q811.0625,275.5059 811.0625,275.8965 Q811.0625,276.2715 810.7969,276.5059 Q810.5313,276.7402 809.9219,276.7402 L804.7813,276.7402 Q804.1719,276.7402 803.9063,276.5059 Q803.6406,276.2715 803.6406,275.8809 Q803.6406,275.5059 803.9063,275.2715 Q804.1719,275.0371 804.7813,275.0371 L806.5,275.0371 L806.5,268.3809 L804.7813,268.3809 Q804.1719,268.3809 803.9063,268.1465 Q803.6406,267.9121 803.6406,267.5215 Q803.6406,267.1465 803.9063,266.9121 Q804.1719,266.6777 804.7813,266.6777 L809.9219,266.6777 Q810.5313,266.6777 810.7969,266.9121 Q811.0625,267.1465 811.0625,267.5215 Q811.0625,267.9121 810.7969,268.1465 Q810.5313,268.3809 809.9219,268.3809 L808.2031,268.3809 Z " fill="#000000"/><ellipse cx="832.75" cy="271.2402" fill="#84BE84" rx="3" ry="3" style="stroke:#038048;stroke-width:1.0;"/><text fill="#000000" font-family="sans-serif" font-size="14" font-style="italic" lengthAdjust="spacing" textLength="156" x="838.75" y="277.5371">RemotePluginFactorySpi</text><line style="stroke:#E74C3C;stroke-width:2.0;" x1="740" x2="1050" y1="287.7402" y2="287.7402"/><line style="stroke:#E74C3C;stroke-width:2.0;" x1="740" x2="1050" y1="295.7402" y2="295.7402"/><ellipse cx="750" cy="310.5508" fill="#84BE84" rx="3" ry="3" style="stroke:#038048;stroke-width:1.0;"/><text fill="#000000" font-family="sans-serif" font-size="14" lengthAdjust="spacing" textLength="260" x="759" y="314.8477">String getDistributedRemoteApiVersion ()</text><ellipse cx="750" cy="329.1719" fill="#84BE84" rx="3" ry="3" style="stroke:#038048;stroke-width:1.0;"/><text fill="#000000" font-family="sans-serif" font-size="14" lengthAdjust="spacing" textLength="199" x="759" y="333.4688">String getCommonApiVersion ()</text><ellipse cx="750" cy="347.793" fill="#84BE84" rx="3" ry="3" style="stroke:#038048;stroke-width:1.0;"/><text fill="#000000" font-family="sans-serif" font-size="14" lengthAdjust="spacing" textLength="199" x="759" y="352.0898">String getRemotePluginName ()</text><ellipse cx="750" cy="366.4141" fill="#84BE84" rx="3" ry="3" style="stroke:#038048;stroke-width:1.0;"/><text fill="#000000" font-family="sans-serif" font-size="14" lengthAdjust="spacing" textLength="286" x="759" y="370.7109">AbstractRemotePluginSpi getRemotePlugin ()</text></g><!--class AbstractRemotePluginSpi--><g id="elem_AbstractRemotePluginSpi"><rect codeLine="85" fill="#FDEDEC" height="122.4844" id="AbstractRemotePluginSpi" rx="2.5" ry="2.5" style="stroke:#E74C3C;stroke-width:2.0;" width="286" x="863" y="456.7402"/><ellipse cx="916.25" cy="472.7402" fill="#B4A7E5" rx="11" ry="11" style="stroke:#181818;stroke-width:1.0;"/><path d="M917.2031,469.3809 L917.2031,476.0371 L918.9219,476.0371 Q919.5313,476.0371 919.7969,476.2715 Q920.0625,476.5059 920.0625,476.8965 Q920.0625,477.2715 919.7969,477.5059 Q919.5313,477.7402 918.9219,477.7402 L913.7813,477.7402 Q913.1719,477.7402 912.9063,477.5059 Q912.6406,477.2715 912.6406,476.8809 Q912.6406,476.5059 912.9063,476.2715 Q913.1719,476.0371 913.7813,476.0371 L915.5,476.0371 L915.5,469.3809 L913.7813,469.3809 Q913.1719,469.3809 912.9063,469.1465 Q912.6406,468.9121 912.6406,468.5215 Q912.6406,468.1465 912.9063,467.9121 Q913.1719,467.6777 913.7813,467.6777 L918.9219,467.6777 Q919.5313,467.6777 919.7969,467.9121 Q920.0625,468.1465 920.0625,468.5215 Q920.0625,468.9121 919.7969,469.1465 Q919.5313,469.3809 918.9219,469.3809 L917.2031,469.3809 Z " fill="#000000"/><ellipse cx="941.75" cy="472.2402" fill="#84BE84" rx="3" ry="3" style="stroke:#038048;stroke-width:1.0;"/><text fill="#000000" font-family="sans-serif" font-size="14" font-style="italic" lengthAdjust="spacing" textLength="160" x="947.75" y="478.5371">AbstractRemotePluginSpi</text><line style="stroke:#E74C3C;stroke-width:2.0;" x1="864" x2="1148" y1="488.7402" y2="488.7402"/><line style="stroke:#E74C3C;stroke-width:2.0;" x1="864" x2="1148" y1="496.7402" y2="496.7402"/><ellipse cx="874" cy="511.5508" fill="#84BE84" rx="3" ry="3" style="stroke:#038048;stroke-width:1.0;"/><text fill="#000000" font-family="sans-serif" font-size="14" lengthAdjust="spacing" textLength="111" x="883" y="515.8477">String getName ()</text><ellipse cx="874" cy="530.1719" fill="#84BE84" rx="3" ry="3" style="stroke:#038048;stroke-width:1.0;"/><text fill="#000000" font-family="sans-serif" font-size="14" lengthAdjust="spacing" textLength="249" x="883" y="534.4688">int exchangeApiLevel (int coreApiLevel)</text><ellipse cx="874" cy="548.793" fill="#84BE84" rx="3" ry="3" style="stroke:#038048;stroke-width:1.0;"/><text fill="#000000" font-family="sans-serif" font-size="14" lengthAdjust="spacing" textLength="260" x="883" y="553.0898">String executeRemotely (String jsonData)</text><ellipse cx="874" cy="567.4141" fill="#84BE84" rx="3" ry="3" style="stroke:#038048;stroke-width:1.0;"/><text fill="#000000" font-family="sans-serif" font-size="14" lengthAdjust="spacing" textLength="125" x="883" y="571.7109">void onUnregister ()</text></g><!--class RemotePluginSpi--><g id="elem_RemotePluginSpi"><rect codeLine="91" fill="#FDEDEC" height="118.4844" id="RemotePluginSpi" rx="2.5" ry="2.5" style="stroke:#E74C3C;stroke-width:2.0;" width="771" x="620.5" y="639.7402"/><ellipse cx="942.25" cy="655.7402" fill="#B4A7E5" rx="11" ry="11" style="stroke:#181818;stroke-width:1.0;"/><path d="M943.2031,652.3809 L943.2031,659.0371 L944.9219,659.0371 Q945.5313,659.0371 945.7969,659.2715 Q946.0625,659.5059 946.0625,659.8965 Q946.0625,660.2715 945.7969,660.5059 Q945.5313,660.7402 944.9219,660.7402 L939.7813,660.7402 Q939.1719,660.7402 938.9063,660.5059 Q938.6406,660.2715 938.6406,659.8809 Q938.6406,659.5059 938.9063,659.2715 Q939.1719,659.0371 939.7813,659.0371 L941.5,659.0371 L941.5,652.3809 L939.7813,652.3809 Q939.1719,652.3809 938.9063,652.1465 Q938.6406,651.9121 938.6406,651.5215 Q938.6406,651.1465 938.9063,650.9121 Q939.1719,650.6777 939.7813,650.6777 L944.9219,650.6777 Q945.5313,650.6777 945.7969,650.9121 Q946.0625,651.1465 946.0625,651.5215 Q946.0625,651.9121 945.7969,652.1465 Q945.5313,652.3809 944.9219,652.3809 L943.2031,652.3809 Z " fill="#000000"/><ellipse cx="967.75" cy="655.2402" fill="#84BE84" rx="3" ry="3" style="stroke:#038048;stroke-width:1.0;"/><text fill="#000000" font-family="sans-serif" font-size="14" font-style="italic" lengthAdjust="spacing" textLength="108" x="973.75" y="661.5371">RemotePluginSpi</text><line style="stroke:#E74C3C;stroke-width:2.0;" x1="621.5" x2="1390.5" y1="671.7402" y2="671.7402"/><ellipse cx="631.5" cy="709.1719" fill="#84BE84" rx="3" ry="3" style="stroke:#038048;stroke-width:1.0;"/><text fill="#000000" font-family="sans-serif" font-size="14" lengthAdjust="spacing" textLength="309" x="640.5" y="713.4688">void connect (RemotePluginApi remotePluginApi)</text><ellipse cx="631.5" cy="727.793" fill="#84BE84" rx="3" ry="3" style="stroke:#038048;stroke-width:1.0;"/><text fill="#000000" font-family="sans-serif" font-size="14" lengthAdjust="spacing" textLength="599" x="640.5" y="732.0898">RemoteReaderSpi createRemoteReader (String remoteReaderName, String localReaderName)</text><ellipse cx="631.5" cy="746.4141" fill="#84BE84" rx="3" ry="3" style="stroke:#038048;stroke-width:1.0;"/><text fill="#000000" font-family="sans-serif" font-size="14" lengthAdjust="spacing" textLength="745" x="640.5" y="750.7109">ObservableRemoteReaderSpi createObservableRemoteReader (String remoteReaderName, String localReaderName)</text><line style="stroke:#E74C3C;stroke-width:1.0;stroke-dasharray:1.0,2.0;" x1="621.5" x2="937" y1="689.0508" y2="689.0508"/><text fill="#000000" filter="url(#b5j9cqn3g2prt1)" font-family="sans-serif" font-size="14" font-weight="bold" lengthAdjust="spacing" textLength="138" x="937" y="694.3477">Reader Server Side</text><line style="stroke:#E74C3C;stroke-width:1.0;stroke-dasharray:1.0,2.0;" x1="1075" x2="1390.5" y1="689.0508" y2="689.0508"/></g><!--class ObservableRemotePluginSpi--><g id="elem_ObservableRemotePluginSpi"><rect codeLine="97" fill="#FDEDEC" height="182.3477" id="ObservableRemotePluginSpi" rx="2.5" ry="2.5" style="stroke:#E74C3C;stroke-width:2.0;" width="483" x="660.5" y="898.7402"/><ellipse cx="802.25" cy="914.7402" fill="#B4A7E5" rx="11" ry="11" style="stroke:#181818;stroke-width:1.0;"/><path d="M803.2031,911.3809 L803.2031,918.0371 L804.9219,918.0371 Q805.5313,918.0371 805.7969,918.2715 Q806.0625,918.5059 806.0625,918.8965 Q806.0625,919.2715 805.7969,919.5059 Q805.5313,919.7402 804.9219,919.7402 L799.7813,919.7402 Q799.1719,919.7402 798.9063,919.5059 Q798.6406,919.2715 798.6406,918.8809 Q798.6406,918.5059 798.9063,918.2715 Q799.1719,918.0371 799.7813,918.0371 L801.5,918.0371 L801.5,911.3809 L799.7813,911.3809 Q799.1719,911.3809 798.9063,911.1465 Q798.6406,910.9121 798.6406,910.5215 Q798.6406,910.1465 798.9063,909.9121 Q799.1719,909.6777 799.7813,909.6777 L804.9219,909.6777 Q805.5313,909.6777 805.7969,909.9121 Q806.0625,910.1465 806.0625,910.5215 Q806.0625,910.9121 805.7969,911.1465 Q805.5313,911.3809 804.9219,911.3809 L803.2031,911.3809 Z " fill="#000000"/><ellipse cx="827.75" cy="914.2402" fill="#84BE84" rx="3" ry="3" style="stroke:#038048;stroke-width:1.0;"/><text fill="#000000" font-family="sans-serif" font-size="14" font-style="italic" lengthAdjust="spacing" textLength="180" x="833.75" y="920.5371">ObservableRemotePluginSpi</text><line style="stroke:#E74C3C;stroke-width:2.0;" x1="661.5" x2="1142.5" y1="930.7402" y2="930.7402"/><ellipse cx="671.5" cy="968.1719" fill="#84BE84" rx="3" ry="3" style="stroke:#038048;stroke-width:1.0;"/><text fill="#000000" font-family="sans-serif" font-size="14" lengthAdjust="spacing" textLength="457" x="680.5" y="972.4688">void connect (ObservableRemotePluginApi observableRemotePluginApi)</text><line style="stroke:#E74C3C;stroke-width:1.0;stroke-dasharray:1.0,2.0;" x1="661.5" x2="759" y1="948.0508" y2="948.0508"/><text fill="#000000" filter="url(#b5j9cqn3g2prt0)" font-family="sans-serif" font-size="14" font-weight="bold" lengthAdjust="spacing" textLength="131" x="759" y="953.3477">Reader Client Side</text><text fill="#000000" font-family="sans-serif" font-size="14" lengthAdjust="spacing" textLength="9" x="894" y="953.3477">&amp;</text><text fill="#000000" filter="url(#b5j9cqn3g2prt1)" font-family="sans-serif" font-size="14" font-weight="bold" lengthAdjust="spacing" textLength="138" x="907" y="953.3477">Reader Server Side</text><line style="stroke:#E74C3C;stroke-width:1.0;stroke-dasharray:1.0,2.0;" x1="1045" x2="1142.5" y1="948.0508" y2="948.0508"/><ellipse cx="671.5" cy="1009.4141" fill="#84BE84" rx="3" ry="3" style="stroke:#038048;stroke-width:1.0;"/><text fill="#000000" font-family="sans-serif" font-size="14" lengthAdjust="spacing" textLength="242" x="680.5" y="1013.7109">ExecutorService getExecutorService ()</text><line style="stroke:#E74C3C;stroke-width:1.0;stroke-dasharray:1.0,2.0;" x1="661.5" x2="836.5" y1="989.293" y2="989.293"/><text fill="#000000" filter="url(#b5j9cqn3g2prt0)" font-family="sans-serif" font-size="14" font-weight="bold" lengthAdjust="spacing" textLength="131" x="836.5" y="994.5898">Reader Client Side</text><line style="stroke:#E74C3C;stroke-width:1.0;stroke-dasharray:1.0,2.0;" x1="967.5" x2="1142.5" y1="989.293" y2="989.293"/><ellipse cx="671.5" cy="1050.6563" fill="#84BE84" rx="3" ry="3" style="stroke:#038048;stroke-width:1.0;"/><text fill="#000000" font-family="sans-serif" font-size="14" lengthAdjust="spacing" textLength="167" x="680.5" y="1054.9531">void onStartObservation ()</text><ellipse cx="671.5" cy="1069.2773" fill="#84BE84" rx="3" ry="3" style="stroke:#038048;stroke-width:1.0;"/><text fill="#000000" font-family="sans-serif" font-size="14" lengthAdjust="spacing" textLength="166" x="680.5" y="1073.5742">void onStopObservation ()</text><line style="stroke:#E74C3C;stroke-width:1.0;stroke-dasharray:1.0,2.0;" x1="661.5" x2="833" y1="1030.5352" y2="1030.5352"/><text fill="#000000" filter="url(#b5j9cqn3g2prt1)" font-family="sans-serif" font-size="14" font-weight="bold" lengthAdjust="spacing" textLength="138" x="833" y="1035.832">Reader Server Side</text><line style="stroke:#E74C3C;stroke-width:1.0;stroke-dasharray:1.0,2.0;" x1="971" x2="1142.5" y1="1030.5352" y2="1030.5352"/></g><!--class RemotePoolPluginSpi--><g id="elem_RemotePoolPluginSpi"><rect codeLine="106" fill="#FDEDEC" height="81.2422" id="RemotePoolPluginSpi" rx="2.5" ry="2.5" style="stroke:#E74C3C;stroke-width:2.0;" width="625" x="803.5" y="787.7402"/><ellipse cx="1038.25" cy="803.7402" fill="#B4A7E5" rx="11" ry="11" style="stroke:#181818;stroke-width:1.0;"/><path d="M1039.2031,800.3809 L1039.2031,807.0371 L1040.9219,807.0371 Q1041.5313,807.0371 1041.7969,807.2715 Q1042.0625,807.5059 1042.0625,807.8965 Q1042.0625,808.2715 1041.7969,808.5059 Q1041.5313,808.7402 1040.9219,808.7402 L1035.7813,808.7402 Q1035.1719,808.7402 1034.9063,808.5059 Q1034.6406,808.2715 1034.6406,807.8809 Q1034.6406,807.5059 1034.9063,807.2715 Q1035.1719,807.0371 1035.7813,807.0371 L1037.5,807.0371 L1037.5,800.3809 L1035.7813,800.3809 Q1035.1719,800.3809 1034.9063,800.1465 Q1034.6406,799.9121 1034.6406,799.5215 Q1034.6406,799.1465 1034.9063,798.9121 Q1035.1719,798.6777 1035.7813,798.6777 L1040.9219,798.6777 Q1041.5313,798.6777 1041.7969,798.9121 Q1042.0625,799.1465 1042.0625,799.5215 Q1042.0625,799.9121 1041.7969,800.1465 Q1041.5313,800.3809 1040.9219,800.3809 L1039.2031,800.3809 Z " fill="#000000"/><ellipse cx="1063.75" cy="803.2402" fill="#84BE84" rx="3" ry="3" style="stroke:#038048;stroke-width:1.0;"/><text fill="#000000" font-family="sans-serif" font-size="14" font-style="italic" lengthAdjust="spacing" textLength="136" x="1069.75" y="809.5371">RemotePoolPluginSpi</text><line style="stroke:#E74C3C;stroke-width:2.0;" x1="804.5" x2="1427.5" y1="819.7402" y2="819.7402"/><ellipse cx="814.5" cy="857.1719" fill="#84BE84" rx="3" ry="3" style="stroke:#038048;stroke-width:1.0;"/><text fill="#000000" font-family="sans-serif" font-size="14" lengthAdjust="spacing" textLength="599" x="823.5" y="861.4688">RemoteReaderSpi createRemoteReader (String remoteReaderName, String localReaderName)</text><line style="stroke:#E74C3C;stroke-width:1.0;stroke-dasharray:1.0,2.0;" x1="804.5" x2="1029.5" y1="837.0508" y2="837.0508"/><text fill="#000000" filter="url(#b5j9cqn3g2prt2)" font-family="sans-serif" font-size="14" font-weight="bold" lengthAdjust="spacing" textLength="173" x="1029.5" y="842.3477">Pool Reader Server Side</text><line style="stroke:#E74C3C;stroke-width:1.0;stroke-dasharray:1.0,2.0;" x1="1202.5" x2="1427.5" y1="837.0508" y2="837.0508"/></g><!--class RemoteReaderSpi--><g id="elem_RemoteReaderSpi"><rect codeLine="111" fill="#FDEDEC" height="118.4844" id="RemoteReaderSpi" rx="2.5" ry="2.5" style="stroke:#E74C3C;stroke-width:2.0;" width="286" x="993" y="1159.7402"/><ellipse cx="1068.25" cy="1175.7402" fill="#B4A7E5" rx="11" ry="11" style="stroke:#181818;stroke-width:1.0;"/><path d="M1069.2031,1172.3809 L1069.2031,1179.0371 L1070.9219,1179.0371 Q1071.5313,1179.0371 1071.7969,1179.2715 Q1072.0625,1179.5059 1072.0625,1179.8965 Q1072.0625,1180.2715 1071.7969,1180.5059 Q1071.5313,1180.7402 1070.9219,1180.7402 L1065.7813,1180.7402 Q1065.1719,1180.7402 1064.9063,1180.5059 Q1064.6406,1180.2715 1064.6406,1179.8809 Q1064.6406,1179.5059 1064.9063,1179.2715 Q1065.1719,1179.0371 1065.7813,1179.0371 L1067.5,1179.0371 L1067.5,1172.3809 L1065.7813,1172.3809 Q1065.1719,1172.3809 1064.9063,1172.1465 Q1064.6406,1171.9121 1064.6406,1171.5215 Q1064.6406,1171.1465 1064.9063,1170.9121 Q1065.1719,1170.6777 1065.7813,1170.6777 L1070.9219,1170.6777 Q1071.5313,1170.6777 1071.7969,1170.9121 Q1072.0625,1171.1465 1072.0625,1171.5215 Q1072.0625,1171.9121 1071.7969,1172.1465 Q1071.5313,1172.3809 1070.9219,1172.3809 L1069.2031,1172.3809 Z " fill="#000000"/><ellipse cx="1093.75" cy="1175.2402" fill="#84BE84" rx="3" ry="3" style="stroke:#038048;stroke-width:1.0;"/><text fill="#000000" font-family="sans-serif" font-size="14" font-style="italic" lengthAdjust="spacing" textLength="116" x="1099.75" y="1181.5371">RemoteReaderSpi</text><line style="stroke:#E74C3C;stroke-width:2.0;" x1="994" x2="1278" y1="1191.7402" y2="1191.7402"/><ellipse cx="1004" cy="1206.5508" fill="#84BE84" rx="3" ry="3" style="stroke:#038048;stroke-width:1.0;"/><text fill="#000000" font-family="sans-serif" font-size="14" lengthAdjust="spacing" textLength="111" x="1013" y="1210.8477">String getName ()</text><ellipse cx="1004" cy="1225.1719" fill="#84BE84" rx="3" ry="3" style="stroke:#038048;stroke-width:1.0;"/><text fill="#000000" font-family="sans-serif" font-size="14" lengthAdjust="spacing" textLength="260" x="1013" y="1229.4688">String executeRemotely (String jsonData)</text><ellipse cx="1004" cy="1266.4141" fill="#84BE84" rx="3" ry="3" style="stroke:#038048;stroke-width:1.0;"/><text fill="#0000FF" font-family="sans-serif" font-size="14" lengthAdjust="spacing" textLength="154" x="1013" y="1270.7109">Boolean isContactless ()</text><line style="stroke:#E74C3C;stroke-width:1.0;stroke-dasharray:1.0,2.0;" x1="994" x2="1070.5" y1="1246.293" y2="1246.293"/><text fill="#000000" filter="url(#b5j9cqn3g2prt0)" font-family="sans-serif" font-size="14" font-weight="bold" lengthAdjust="spacing" textLength="131" x="1070.5" y="1251.5898">Reader Client Side</text><line style="stroke:#E74C3C;stroke-width:1.0;stroke-dasharray:1.0,2.0;" x1="1201.5" x2="1278" y1="1246.293" y2="1246.293"/></g><!--class ObservableRemoteReaderSpi--><g id="elem_ObservableRemoteReaderSpi"><rect codeLine="117" fill="#FDEDEC" height="99.8633" id="ObservableRemoteReaderSpi" rx="2.5" ry="2.5" style="stroke:#E74C3C;stroke-width:2.0;" width="231" x="720.5" y="1338.7402"/><ellipse cx="735.5" cy="1354.7402" fill="#B4A7E5" rx="11" ry="11" style="stroke:#181818;stroke-width:1.0;"/><path d="M736.4531,1351.3809 L736.4531,1358.0371 L738.1719,1358.0371 Q738.7813,1358.0371 739.0469,1358.2715 Q739.3125,1358.5059 739.3125,1358.8965 Q739.3125,1359.2715 739.0469,1359.5059 Q738.7813,1359.7402 738.1719,1359.7402 L733.0313,1359.7402 Q732.4219,1359.7402 732.1563,1359.5059 Q731.8906,1359.2715 731.8906,1358.8809 Q731.8906,1358.5059 732.1563,1358.2715 Q732.4219,1358.0371 733.0313,1358.0371 L734.75,1358.0371 L734.75,1351.3809 L733.0313,1351.3809 Q732.4219,1351.3809 732.1563,1351.1465 Q731.8906,1350.9121 731.8906,1350.5215 Q731.8906,1350.1465 732.1563,1349.9121 Q732.4219,1349.6777 733.0313,1349.6777 L738.1719,1349.6777 Q738.7813,1349.6777 739.0469,1349.9121 Q739.3125,1350.1465 739.3125,1350.5215 Q739.3125,1350.9121 739.0469,1351.1465 Q738.7813,1351.3809 738.1719,1351.3809 L736.4531,1351.3809 Z " fill="#000000"/><ellipse cx="754.5" cy="1354.2402" fill="#84BE84" rx="3" ry="3" style="stroke:#038048;stroke-width:1.0;"/><text fill="#000000" font-family="sans-serif" font-size="14" font-style="italic" lengthAdjust="spacing" textLength="188" x="760.5" y="1360.5371">ObservableRemoteReaderSpi</text><line style="stroke:#E74C3C;stroke-width:2.0;" x1="721.5" x2="950.5" y1="1370.7402" y2="1370.7402"/><ellipse cx="731.5" cy="1408.1719" fill="#84BE84" rx="3" ry="3" style="stroke:#038048;stroke-width:1.0;"/><text fill="#000000" font-family="sans-serif" font-size="14" lengthAdjust="spacing" textLength="167" x="740.5" y="1412.4688">void onStartObservation ()</text><ellipse cx="731.5" cy="1426.793" fill="#84BE84" rx="3" ry="3" style="stroke:#038048;stroke-width:1.0;"/><text fill="#000000" font-family="sans-serif" font-size="14" lengthAdjust="spacing" textLength="166" x="740.5" y="1431.0898">void onStopObservation ()</text><line style="stroke:#E74C3C;stroke-width:1.0;stroke-dasharray:1.0,2.0;" x1="721.5" x2="767" y1="1388.0508" y2="1388.0508"/><text fill="#000000" filter="url(#b5j9cqn3g2prt1)" font-family="sans-serif" font-size="14" font-weight="bold" lengthAdjust="spacing" textLength="138" x="767" y="1393.3477">Reader Server Side</text><line style="stroke:#E74C3C;stroke-width:1.0;stroke-dasharray:1.0,2.0;" x1="905" x2="950.5" y1="1388.0508" y2="1388.0508"/></g><!--reverse link AbstractRemotePluginSpi to RemotePluginSpi--><g id="link_AbstractRemotePluginSpi_RemotePluginSpi"><path d="M1006,596.8422 C1006,616.4442 1006,620.1632 1006,639.6172 " fill="none" id="AbstractRemotePluginSpi-backto-RemotePluginSpi" style="stroke:#181818;stroke-width:2.0;"/><polygon fill="none" points="1006,578.8422,1000,596.8422,1012,596.8422,1006,578.8422" style="stroke:#181818;stroke-width:2.0;"/></g><!--reverse link RemotePluginSpi to ObservableRemotePluginSpi--><g id="link_RemotePluginSpi_ObservableRemotePluginSpi"><path d="M808.5941,769.1924 C798.0491,777.8314 802.594,776.3452 795,787.7402 C771.762,822.6102 786.112,863.0652 810.908,898.5002 " fill="none" id="RemotePluginSpi-backto-ObservableRemotePluginSpi" style="stroke:#181818;stroke-width:2.0;"/><polygon fill="none" points="822.518,757.7852,804.7917,764.5511,812.3965,773.8337,822.518,757.7852" style="stroke:#181818;stroke-width:2.0;"/></g><!--reverse link AbstractRemotePluginSpi to RemotePoolPluginSpi--><g id="link_AbstractRemotePluginSpi_RemotePoolPluginSpi"><path d="M1166.8822,546.7541 C1269.5122,567.5271 1377.34,597.1722 1409,639.7402 C1440.3,681.8192 1441.52,716.5992 1409,757.7402 C1399.76,769.4282 1380.11,779.3572 1355.14,787.7312 " fill="none" id="AbstractRemotePluginSpi-backto-RemotePoolPluginSpi" style="stroke:#181818;stroke-width:2.0;"/><polygon fill="none" points="1149.24,543.1832,1165.6919,552.6349,1168.0725,540.8734,1149.24,543.1832" style="stroke:#181818;stroke-width:2.0;"/></g><!--reverse link RemoteReaderSpi to ObservableRemoteReaderSpi--><g id="link_RemoteReaderSpi_ObservableRemoteReaderSpi"><path d="M1016.6347,1286.5858 C981.2347,1306.4088 957.726,1319.5732 923.709,1338.6232 " fill="none" id="RemoteReaderSpi-backto-ObservableRemoteReaderSpi" style="stroke:#181818;stroke-width:2.0;"/><polygon fill="none" points="1032.34,1277.7912,1013.7032,1281.3507,1019.5662,1291.8209,1032.34,1277.7912" style="stroke:#181818;stroke-width:2.0;"/></g><!--reverse link ApiProperties to RemotePluginFactorySpi--><g id="link_ApiProperties_RemotePluginFactorySpi"><path codeLine="127" d="M593.595,316.7402 C641.625,316.7402 689.703,316.7402 738.958,316.7402 " fill="none" id="ApiProperties-backto-RemotePluginFactorySpi" style="stroke:#3498DB;stroke-width:2.0;stroke-dasharray:7.0,7.0;"/><polygon fill="#3498DB" points="587.595,316.7402,596.595,320.7402,592.595,316.7402,596.595,312.7402,587.595,316.7402" style="stroke:#3498DB;stroke-width:2.0;"/><text fill="#000000" font-family="sans-serif" font-size="13" lengthAdjust="spacing" textLength="40" x="643.25" y="292.7686">provide</text><polygon fill="#000000" points="624.25,304.6768,633.2951,307.6157,633.2951,301.7378,624.25,304.6768" style="stroke:#000000;stroke-width:1.0;"/><text fill="#000000" font-family="sans-serif" font-size="13" lengthAdjust="spacing" textLength="65" x="637.25" y="310.0596">API version</text></g><!--link RemotePluginFactorySpi to AbstractRemotePluginSpi--><g id="link_RemotePluginFactorySpi_AbstractRemotePluginSpi"><path codeLine="128" d="M928.605,377.9902 C942.515,402.9202 955.6885,426.5401 969.5865,451.4601 " fill="none" id="RemotePluginFactorySpi-to-AbstractRemotePluginSpi" style="stroke:#3498DB;stroke-width:2.0;stroke-dasharray:7.0,7.0;"/><polygon fill="#3498DB" points="972.509,456.7002,971.6187,446.8917,970.0736,452.3334,964.6319,450.7883,972.509,456.7002" style="stroke:#3498DB;stroke-width:2.0;"/><polygon fill="#000000" points="960.4357,421.7524,958.5961,412.4214,953.4628,415.2847,960.4357,421.7524" style="stroke:#000000;stroke-width:1.0;"/><text fill="#000000" font-family="sans-serif" font-size="13" lengthAdjust="spacing" textLength="40" x="967" y="422.7686">provide</text></g><!--reverse link RemotePluginApi to RemotePluginSpi--><g id="link_RemotePluginApi_RemotePluginSpi"><path codeLine="130" d="M556.285,698.7402 C578.174,698.7402 595.779,698.7402 620.323,698.7402 " fill="none" id="RemotePluginApi-backto-RemotePluginSpi" style="stroke:#27AE60;stroke-width:2.0;stroke-dasharray:7.0,7.0;"/><polygon fill="#27AE60" points="550.285,698.7402,559.285,702.7402,555.285,698.7402,559.285,694.7402,550.285,698.7402" style="stroke:#27AE60;stroke-width:2.0;"/><polygon fill="#000000" points="567.25,686.3857,576.2951,689.3247,576.2951,683.4468,567.25,686.3857" style="stroke:#000000;stroke-width:1.0;"/><text fill="#000000" font-family="sans-serif" font-size="13" lengthAdjust="spacing" textLength="21" x="581.25" y="691.7686">use</text></g><!--link RemotePluginSpi to RemoteReaderSpi--><g id="link_RemotePluginSpi_RemoteReaderSpi"><path codeLine="131" d="M828.982,758.0382 C818.621,766.6212 809.418,776.4612 802,787.7402 C792.109,802.7792 789.814,855.4932 802,868.7402 C856.2,927.6582 1106.8,839.8222 1161,898.7402 C1225.6,968.9582 1194.5212,1082.9836 1165.5912,1154.0886 " fill="none" id="RemotePluginSpi-to-RemoteReaderSpi" style="stroke:#3498DB;stroke-width:2.0;stroke-dasharray:7.0,7.0;"/><polygon fill="#3498DB" points="1163.33,1159.6462,1170.4269,1152.8173,1165.2143,1155.0149,1163.0167,1149.8024,1163.33,1159.6462" style="stroke:#3498DB;stroke-width:2.0;"/><polygon fill="#000000" points="1206.2381,993.6956,1202.6197,984.9002,1198.141,988.7068,1206.2381,993.6956" style="stroke:#000000;stroke-width:1.0;"/><text fill="#000000" font-family="sans-serif" font-size="13" lengthAdjust="spacing" textLength="36" x="1212" y="995.2686">create</text></g><!--link RemotePluginSpi to ObservableRemoteReaderSpi--><g id="link_RemotePluginSpi_ObservableRemoteReaderSpi"><path codeLine="132" d="M801.758,757.9492 C736.756,788.1502 673.764,832.9932 643,898.7402 C569.408,1056.0132 707.8372,1245.0843 785.8302,1334.1493 " fill="none" id="RemotePluginSpi-to-ObservableRemoteReaderSpi" style="stroke:#3498DB;stroke-width:2.0;stroke-dasharray:7.0,7.0;"/><polygon fill="#3498DB" points="789.783,1338.6632,786.8631,1329.2572,786.489,1334.9016,780.8445,1334.5275,789.783,1338.6632" style="stroke:#3498DB;stroke-width:2.0;"/><polygon fill="#000000" points="657.8618,1125.3838,661.0496,1116.4234,655.174,1116.261,657.8618,1125.3838" style="stroke:#000000;stroke-width:1.0;"/><text fill="#000000" font-family="sans-serif" font-size="13" lengthAdjust="spacing" textLength="36" x="667" y="1125.7686">create</text></g><!--reverse link ObservableRemotePluginApi to ObservableRemotePluginSpi--><g id="link_ObservableRemotePluginApi_ObservableRemotePluginSpi"><path codeLine="134" d="M594.202,989.7402 C618.291,989.7402 636.514,989.7402 660.24,989.7402 " fill="none" id="ObservableRemotePluginApi-backto-ObservableRemotePluginSpi" style="stroke:#27AE60;stroke-width:2.0;stroke-dasharray:7.0,7.0;"/><polygon fill="#27AE60" points="588.202,989.7402,597.202,993.7402,593.202,989.7402,597.202,985.7402,588.202,989.7402" style="stroke:#27AE60;stroke-width:2.0;"/><polygon fill="#000000" points="606.25,977.3857,615.2951,980.3247,615.2951,974.4468,606.25,977.3857" style="stroke:#000000;stroke-width:1.0;"/><text fill="#000000" font-family="sans-serif" font-size="13" lengthAdjust="spacing" textLength="21" x="620.25" y="982.7686">use</text></g><!--link RemotePoolPluginSpi to RemoteReaderSpi--><g id="link_RemotePoolPluginSpi_RemoteReaderSpi"><path codeLine="136" d="M1243.42,868.8362 C1255.01,877.0182 1265.28,886.8742 1273,898.7402 C1317.13,966.5322 1303.95,1006.0082 1273,1080.7402 C1260.51,1110.8842 1242.2006,1133.7542 1218.8306,1155.6272 " fill="none" id="RemotePoolPluginSpi-to-RemoteReaderSpi" style="stroke:#3498DB;stroke-width:2.0;stroke-dasharray:7.0,7.0;"/><polygon fill="#3498DB" points="1214.45,1159.7272,1223.7543,1156.4976,1218.1005,1156.3106,1218.2876,1150.6568,1214.45,1159.7272" style="stroke:#3498DB;stroke-width:2.0;"/><polygon fill="#000000" points="1305.5729,994.8675,1309.2737,986.1065,1303.4174,985.6044,1305.5729,994.8675" style="stroke:#000000;stroke-width:1.0;"/><text fill="#000000" font-family="sans-serif" font-size="13" lengthAdjust="spacing" textLength="36" x="1315" y="995.2686">create</text></g><!--link ObservableRemotePluginSpi to RemoteReaderSpi--><!--SRC=[pLXhJzj85FsUNp5Rf6tYrWQIq3GHHNBywAAoW0YjX7PNQB27n6NYiMR6eH7Yl-yydFY1JLBAIfjFyPqxvznxvyuPZtd4CMe1yVk2bWb6m0HtweyPHepJw2RbA3GfcXEEpEzm0KsOHCAfP-rRxq2xkzVjctj3Sw_RQQ4u15p1jTw2Jv_0vH_Udvxu8nuTacAKKWOYnbB4G8Z02CmuJzXeTtV6vpWWcD20X8XP0Pdltj9T3cymWgaP8ZFGisjCuY-Bfh6POCXtMx-5w3QA4N2kFrzuL_l0_-WF_M75t0L-r-_v_Ogv1xm3R-1LlVl07RXZrwsO3u1ZExxRhPW_WB7hz9n1mNnoVFe5zFh3Z-wuOFqwyK1tO7iVzcIjJ1DC-1ABkl0Pv20ayLiExWcz0_SHdu4OtOC5eYmYCI2tGEGQytIEnRGMkulY158u1umZYWXV9iWU4neYwiYAWXrxw3gkN-juN78Sz-s1Tr3hw9GHNNT_tArrz4gEtdZO4zGgF-_KbV4MPZaOCgRzBsTHS1SZna0HrgQKt1U71D8LmfZSFq61mTsKaZGECsRVypt7goVBNDo-xUov0l82XHlm3Wyf2e-E1AphkPxp3EpQqnlqHH-qPf5ez9KnBvDWFK-fs6CRYHFbfhZxdkCFdkNEdJzw_RxjhkZNzb84DpZTp2-TL3vZ_y0VFyk-SirwFUFEh2NcpnIXU2FrL7efxg4_yFndkTU-sPxAo5VcAljo6_AbuhP57tcRk9Lhr-bv1qNgPPbPQw9pTdhfdLugLSHegYIJ94f_hwyL8WFQVdqDHifkY95CczrSaW4ZEELI4b86fmZCfNRcSmnmU2EI6k5eEkEgu4U6SO6WY5la4A6OWuc8r30ETwNV4MXVA8a7vpYTHa9dOe4nGLJeZc5qofW9JkSvcdRQ0atJ2XGbQeQXnyIps8w6SNR3190K-9MzKvF9MBRJAr0JWdCQkGYwvgrM8Z1aETyGEhLGWAE48KiVYE9WeiWgd8gMFXNV0CY0F1GVLC3l0jaYu8rX2As7M90MLat7PYVHEIK9eZn2J4qlMGgTgo4Lx0FZa4V18yY19m8sde9ltiNa-EnKkJxg6A9ODDuj313GZ3fPUnsa_5dMzkjfMNaW2nA5egpQtLl8LcfdaNnd97OXXvtwMF8rtYAghJltIMmmpEgSpMeNdoQ2ZPQVtmCH8WWKjYFMM0HqWXO8ToguSje2bQ6pn8k8ft2EEgzLPLsYpLLUzIqh5VCjy6702HLDbIFNzuPsNChoh0wi74VDozYdYDSrzBVi1QNTQPhbaFcSn5kv5WEJvNpYQj-824J4HKSPUcLkSTvZeIfwjBOcJSWRYr8Rfsmiz2EOmNYwRYlGLkrMssX5JFG31IdF-Wql6vQ_sZ1VOugcaJntwfDlMFvYYkW75rh86ajHBi4B6poFEI1nZ0A-sgQvAD3oSoNVwgOEA89ykztvVgMSc0GGr-rQnL2LgofN_VWliDQkKhrergtNbkkqjR3-_beBswpxf6cayuknLmFor6OYL4OVYQgA3LirjJklszSadd18UPOyhrEyjHz96joUsxZhbvXNsBp5joi937uctVzqAnPrMuy_SvRbCRnChryalR_UdOVgyyT8NPR6ele8nY1Y3ecvM44iRx_jdrI9fuKegqG-_l2_xVh7rgEyDTcCaI1IFgpLQdXdiJ2wvTPHvKLw9_l-CW899GiH_D-nVNwy_fXos8WcaHesq1DCS5IEgXXELUzszAUVaRYqoNbFfgsdvEkJy-bjrJ2jkG5g05hDXyegycRDhkJGgbEZBHFHT-8J- -higxuIDyTb_YLkrY6A_p6hm1dAvFBgH7zjNBqBGqsglmK-F1Rj5il7kdBiNm00]--></g></svg>