<?xml version="1.0" encoding="UTF-8" standalone="no"?><svg xmlns="http://www.w3.org/2000/svg" xmlns:xlink="http://www.w3.org/1999/xlink" contentStyleType="text/css" height="1434px" preserveAspectRatio="none" style="width:1332px;height:1434px;background:#FFFFFF;" version="1.1" viewBox="0 0 1332 1434" width="1332px" zoomAndPan="magnify"><defs><filter height="1" id="b1wsofcfptcsoq0" width="1" x="0" y="0"><feFlood flood-color="#90EE90" result="flood"/><feComposite in="SourceGraphic" in2="flood" operator="over"/></filter><filter height="1" id="b1wsofcfptcsoq1" width="1" x="0" y="0"><feFlood flood-color="#DDA0DD" result="flood"/><feComposite in="SourceGraphic" in2="flood" operator="over"/></filter><filter height="1" id="b1wsofcfptcsoq2" width="1" x="0" y="0"><feFlood flood-color="#ADD8E6" result="flood"/><feComposite in="SourceGraphic" in2="flood" operator="over"/></filter></defs><g><text fill="#000000" font-family="sans-serif" font-size="14" font-weight="bold" lengthAdjust="spacing" textLength="437" x="440.5" y="25.1074">Keyple - keyple-distributed-remote-java-api - 2.1.+ (2023-02-17)</text><rect fill="#DDDDDD" height="103.1055" id="_legend" rx="7.5" ry="7.5" style="stroke:#000000;stroke-width:1.0;" width="558" x="380" y="51.6211"/><text fill="#000000" font-family="sans-serif" font-size="14" lengthAdjust="spacing" text-decoration="underline" textLength="88" x="385" y="71.7285">Colors legend</text><text fill="#000000" font-family="sans-serif" font-size="14" lengthAdjust="spacing" textLength="4" x="477" y="71.7285">:</text><ellipse cx="390.5" cy="86.3633" fill="#000000" rx="2.5" ry="2.5" style="stroke:#000000;stroke-width:0.0;"/><text fill="#000000" font-family="sans-serif" font-size="14" lengthAdjust="spacing" text-decoration="underline" textLength="257" x="397" y="90.3496">Keyple Distributed solution usage modes</text><text fill="#000000" font-family="sans-serif" font-size="14" lengthAdjust="spacing" textLength="4" x="658" y="90.3496">:</text><rect fill="#000000" height="3.5" style="stroke:#000000;stroke-width:0.0;" width="3.5" x="394" y="102.4844"/><text fill="#000000" filter="url(#b1wsofcfptcsoq0)" font-family="sans-serif" font-size="14" font-weight="bold" lengthAdjust="spacing" textLength="131" x="401" y="108.9707">Reader Client Side</text><text fill="#000000" font-family="sans-serif" font-size="14" lengthAdjust="spacing" textLength="117" x="536" y="108.9707">(Remote Plugin on</text><text fill="#000000" font-family="sans-serif" font-size="14" font-weight="bold" lengthAdjust="spacing" textLength="48" x="657" y="108.9707">Server</text><text fill="#000000" font-family="sans-serif" font-size="14" lengthAdjust="spacing" textLength="5" x="705" y="108.9707">)</text><rect fill="#000000" height="3.5" style="stroke:#000000;stroke-width:0.0;" width="3.5" x="394" y="121.1055"/><text fill="#000000" filter="url(#b1wsofcfptcsoq1)" font-family="sans-serif" font-size="14" font-weight="bold" lengthAdjust="spacing" textLength="138" x="401" y="127.5918">Reader Server Side</text><text fill="#000000" font-family="sans-serif" font-size="14" lengthAdjust="spacing" textLength="117" x="543" y="127.5918">(Remote Plugin on</text><text fill="#000000" font-family="sans-serif" font-size="14" font-weight="bold" lengthAdjust="spacing" textLength="41" x="664" y="127.5918">Client</text><text fill="#000000" font-family="sans-serif" font-size="14" lengthAdjust="spacing" textLength="24" x="709" y="127.5918">with</text><text fill="#000000" font-family="sans-serif" font-size="14" font-weight="bold" lengthAdjust="spacing" textLength="44" x="737" y="127.5918">Plugin</text><text fill="#000000" font-family="sans-serif" font-size="14" lengthAdjust="spacing" textLength="13" x="785" y="127.5918">or</text><text fill="#000000" font-family="sans-serif" font-size="14" font-weight="bold" lengthAdjust="spacing" textLength="126" x="802" y="127.5918">ObservablePlugin</text><text fill="#000000" font-family="sans-serif" font-size="14" lengthAdjust="spacing" textLength="5" x="928" y="127.5918">)</text><rect fill="#000000" height="3.5" style="stroke:#000000;stroke-width:0.0;" width="3.5" x="394" y="139.7266"/><text fill="#000000" filter="url(#b1wsofcfptcsoq2)" font-family="sans-serif" font-size="14" font-weight="bold" lengthAdjust="spacing" textLength="138" x="401" y="146.2129">Reader Server Side</text><text fill="#000000" font-family="sans-serif" font-size="14" lengthAdjust="spacing" textLength="117" x="543" y="146.2129">(Remote Plugin on</text><text fill="#000000" font-family="sans-serif" font-size="14" font-weight="bold" lengthAdjust="spacing" textLength="41" x="664" y="146.2129">Client</text><text fill="#000000" font-family="sans-serif" font-size="14" lengthAdjust="spacing" textLength="24" x="709" y="146.2129">with</text><text fill="#000000" font-family="sans-serif" font-size="14" font-weight="bold" lengthAdjust="spacing" textLength="75" x="737" y="146.2129">PoolPlugin</text><text fill="#000000" font-family="sans-serif" font-size="14" lengthAdjust="spacing" textLength="5" x="812" y="146.2129">)</text><!--cluster api--><g id="cluster_api"><path d="M8.5,173.7402 L309.5,173.7402 A3.75,3.75 0 0 1 312,176.2402 L319,198.3613 L1322.5,198.3613 A2.5,2.5 0 0 1 1325,200.8613 L1325,1425.2402 A2.5,2.5 0 0 1 1322.5,1427.7402 L8.5,1427.7402 A2.5,2.5 0 0 1 6,1425.2402 L6,176.2402 A2.5,2.5 0 0 1 8.5,173.7402 " fill="#F8F9F9" style="stroke:#000000;stroke-width:1.5;"/><line style="stroke:#000000;stroke-width:1.5;" x1="6" x2="319" y1="198.3613" y2="198.3613"/><text fill="#000000" font-family="sans-serif" font-size="14" font-weight="bold" lengthAdjust="spacing" textLength="300" x="10" y="190.8477">org.eclipse.keyple.core.distributed.remote</text></g><!--cluster spi--><g id="cluster_spi"><path d="M462.5,218.7402 L484.5,218.7402 A3.75,3.75 0 0 1 487,221.2402 L494,243.3613 L1298.5,243.3613 A2.5,2.5 0 0 1 1301,245.8613 L1301,1401.2402 A2.5,2.5 0 0 1 1298.5,1403.7402 L462.5,1403.7402 A2.5,2.5 0 0 1 460,1401.2402 L460,221.2402 A2.5,2.5 0 0 1 462.5,218.7402 " fill="#F2F3F4" style="stroke:#000000;stroke-width:1.5;"/><line style="stroke:#000000;stroke-width:1.5;" x1="460" x2="494" y1="243.3613" y2="243.3613"/><text fill="#000000" font-family="sans-serif" font-size="14" font-weight="bold" lengthAdjust="spacing" textLength="21" x="464" y="235.8477">spi</text></g><!--class ApiProperties--><g id="elem_ApiProperties"><rect codeLine="62" fill="#FEFECE" height="66.6211" id="ApiProperties" rx="2.5" ry="2.5" style="stroke:#D4AC0D;stroke-width:2.0;" width="279" x="164.5" y="283.2402"/><ellipse cx="179.5" cy="299.2402" fill="#ADD1B2" rx="11" ry="11" style="stroke:#181818;stroke-width:1.0;"/><path d="M182.2656,295.1152 Q182.4219,294.8965 182.6094,294.7871 Q182.7969,294.6777 183.0156,294.6777 Q183.3906,294.6777 183.625,294.9434 Q183.8594,295.1934 183.8594,295.8027 L183.8594,297.2559 Q183.8594,297.8652 183.625,298.1309 Q183.3906,298.3965 183.0156,298.3965 Q182.6719,298.3965 182.4688,298.1934 Q182.2656,298.0059 182.1563,297.4902 Q182.1094,297.1309 181.9219,296.9434 Q181.5938,296.5684 180.9844,296.3496 Q180.375,296.1309 179.75,296.1309 Q178.9844,296.1309 178.3438,296.459 Q177.7188,296.7871 177.2188,297.5371 Q176.7344,298.2871 176.7344,299.3184 L176.7344,300.4121 Q176.7344,301.6465 177.625,302.4746 Q178.5156,303.2871 180.1094,303.2871 Q181.0469,303.2871 181.7031,303.0371 Q182.0938,302.8809 182.5156,302.4434 Q182.7813,302.1777 182.9219,302.0996 Q183.0781,302.0215 183.2813,302.0215 Q183.6094,302.0215 183.8594,302.2871 Q184.125,302.5371 184.125,302.8809 Q184.125,303.2246 183.7813,303.6309 Q183.2813,304.209 182.4844,304.5371 Q181.4063,304.9902 180.1094,304.9902 Q178.5938,304.9902 177.3906,304.3652 Q176.4063,303.8652 175.7188,302.8027 Q175.0313,301.7246 175.0313,300.4434 L175.0313,299.2871 Q175.0313,297.959 175.6406,296.8184 Q176.2656,295.6621 177.3594,295.0527 Q178.4531,294.4277 179.6875,294.4277 Q180.4219,294.4277 181.0625,294.5996 Q181.7188,294.7559 182.2656,295.1152 Z " fill="#000000"/><ellipse cx="198.5" cy="298.7402" fill="#84BE84" rx="3" ry="3" style="stroke:#038048;stroke-width:1.0;"/><text fill="#000000" font-family="sans-serif" font-size="14" font-weight="bold" lengthAdjust="spacing" textLength="30" x="204.5" y="305.0371">final</text><text fill="#000000" font-family="sans-serif" font-size="14" lengthAdjust="spacing" textLength="202" x="238.5" y="305.0371">DistributedRemoteApiProperties</text><line style="stroke:#D4AC0D;stroke-width:2.0;" x1="165.5" x2="442.5" y1="315.2402" y2="315.2402"/><ellipse cx="175.5" cy="330.0508" fill="none" rx="3" ry="3" style="stroke:#038048;stroke-width:1.0;"/><text fill="#000000" font-family="sans-serif" font-size="14" font-weight="bold" lengthAdjust="spacing" text-decoration="underline" textLength="30" x="184.5" y="334.3477">final</text><text fill="#000000" font-family="sans-serif" font-size="14" lengthAdjust="spacing" text-decoration="underline" textLength="101" x="218.5" y="334.3477">String VERSION</text><line style="stroke:#D4AC0D;stroke-width:2.0;" x1="165.5" x2="442.5" y1="341.8613" y2="341.8613"/></g><!--class RemotePluginApi--><g id="elem_RemotePluginApi"><rect codeLine="65" fill="#FEFECE" height="81.2422" id="RemotePluginApi" rx="2.5" ry="2.5" style="stroke:#D4AC0D;stroke-width:2.0;" width="266" x="140" y="640.2402"/><ellipse cx="209.25" cy="656.2402" fill="#B4A7E5" rx="11" ry="11" style="stroke:#181818;stroke-width:1.0;"/><path d="M210.2031,652.8809 L210.2031,659.5371 L211.9219,659.5371 Q212.5313,659.5371 212.7969,659.7715 Q213.0625,660.0059 213.0625,660.3965 Q213.0625,660.7715 212.7969,661.0059 Q212.5313,661.2402 211.9219,661.2402 L206.7813,661.2402 Q206.1719,661.2402 205.9063,661.0059 Q205.6406,660.7715 205.6406,660.3809 Q205.6406,660.0059 205.9063,659.7715 Q206.1719,659.5371 206.7813,659.5371 L208.5,659.5371 L208.5,652.8809 L206.7813,652.8809 Q206.1719,652.8809 205.9063,652.6465 Q205.6406,652.4121 205.6406,652.0215 Q205.6406,651.6465 205.9063,651.4121 Q206.1719,651.1777 206.7813,651.1777 L211.9219,651.1777 Q212.5313,651.1777 212.7969,651.4121 Q213.0625,651.6465 213.0625,652.0215 Q213.0625,652.4121 212.7969,652.6465 Q212.5313,652.8809 211.9219,652.8809 L210.2031,652.8809 Z " fill="#000000"/><ellipse cx="234.75" cy="655.7402" fill="#84BE84" rx="3" ry="3" style="stroke:#038048;stroke-width:1.0;"/><text fill="#000000" font-family="sans-serif" font-size="14" font-style="italic" lengthAdjust="spacing" textLength="108" x="240.75" y="662.0371">RemotePluginApi</text><line style="stroke:#D4AC0D;stroke-width:2.0;" x1="141" x2="405" y1="672.2402" y2="672.2402"/><ellipse cx="151" cy="709.6719" fill="#84BE84" rx="3" ry="3" style="stroke:#038048;stroke-width:1.0;"/><text fill="#000000" font-family="sans-serif" font-size="14" lengthAdjust="spacing" textLength="240" x="160" y="713.9688">void onReaderEvent (String jsonData)</text><line style="stroke:#D4AC0D;stroke-width:1.0;stroke-dasharray:1.0,2.0;" x1="141" x2="204" y1="689.5508" y2="689.5508"/><text fill="#000000" filter="url(#b1wsofcfptcsoq1)" font-family="sans-serif" font-size="14" font-weight="bold" lengthAdjust="spacing" textLength="138" x="204" y="694.8477">Reader Server Side</text><line style="stroke:#D4AC0D;stroke-width:1.0;stroke-dasharray:1.0,2.0;" x1="342" x2="405" y1="689.5508" y2="689.5508"/></g><!--class ObservableRemotePluginApi--><g id="elem_ObservableRemotePluginApi"><rect codeLine="69" fill="#FEFECE" height="141.1055" id="ObservableRemotePluginApi" rx="2.5" ry="2.5" style="stroke:#D4AC0D;stroke-width:2.0;" width="421" x="22.5" y="901.2402"/><ellipse cx="133.25" cy="917.2402" fill="#B4A7E5" rx="11" ry="11" style="stroke:#181818;stroke-width:1.0;"/><path d="M134.2031,913.8809 L134.2031,920.5371 L135.9219,920.5371 Q136.5313,920.5371 136.7969,920.7715 Q137.0625,921.0059 137.0625,921.3965 Q137.0625,921.7715 136.7969,922.0059 Q136.5313,922.2402 135.9219,922.2402 L130.7813,922.2402 Q130.1719,922.2402 129.9063,922.0059 Q129.6406,921.7715 129.6406,921.3809 Q129.6406,921.0059 129.9063,920.7715 Q130.1719,920.5371 130.7813,920.5371 L132.5,920.5371 L132.5,913.8809 L130.7813,913.8809 Q130.1719,913.8809 129.9063,913.6465 Q129.6406,913.4121 129.6406,913.0215 Q129.6406,912.6465 129.9063,912.4121 Q130.1719,912.1777 130.7813,912.1777 L135.9219,912.1777 Q136.5313,912.1777 136.7969,912.4121 Q137.0625,912.6465 137.0625,913.0215 Q137.0625,913.4121 136.7969,913.6465 Q136.5313,913.8809 135.9219,913.8809 L134.2031,913.8809 Z " fill="#000000"/><ellipse cx="158.75" cy="916.7402" fill="#84BE84" rx="3" ry="3" style="stroke:#038048;stroke-width:1.0;"/><text fill="#000000" font-family="sans-serif" font-size="14" font-style="italic" lengthAdjust="spacing" textLength="180" x="164.75" y="923.0371">ObservableRemotePluginApi</text><line style="stroke:#D4AC0D;stroke-width:2.0;" x1="23.5" x2="442.5" y1="933.2402" y2="933.2402"/><ellipse cx="33.5" cy="970.6719" fill="#84BE84" rx="3" ry="3" style="stroke:#038048;stroke-width:1.0;"/><text fill="#000000" font-family="sans-serif" font-size="14" lengthAdjust="spacing" textLength="395" x="42.5" y="974.9688">void addRemoteReader (RemoteReaderSpi remoteReaderSpi)</text><ellipse cx="33.5" cy="989.293" fill="#84BE84" rx="3" ry="3" style="stroke:#038048;stroke-width:1.0;"/><text fill="#000000" font-family="sans-serif" font-size="14" lengthAdjust="spacing" textLength="350" x="42.5" y="993.5898">void removeRemoteReader (Sting remoteReaderName)</text><line style="stroke:#D4AC0D;stroke-width:1.0;stroke-dasharray:1.0,2.0;" x1="23.5" x2="167.5" y1="950.5508" y2="950.5508"/><text fill="#000000" filter="url(#b1wsofcfptcsoq0)" font-family="sans-serif" font-size="14" font-weight="bold" lengthAdjust="spacing" textLength="131" x="167.5" y="955.8477">Reader Client Side</text><line style="stroke:#D4AC0D;stroke-width:1.0;stroke-dasharray:1.0,2.0;" x1="298.5" x2="442.5" y1="950.5508" y2="950.5508"/><ellipse cx="33.5" cy="1030.5352" fill="#84BE84" rx="3" ry="3" style="stroke:#038048;stroke-width:1.0;"/><text fill="#000000" font-family="sans-serif" font-size="14" lengthAdjust="spacing" textLength="232" x="42.5" y="1034.832">void onPluginEvent (String jsonData)</text><line style="stroke:#D4AC0D;stroke-width:1.0;stroke-dasharray:1.0,2.0;" x1="23.5" x2="164" y1="1010.4141" y2="1010.4141"/><text fill="#000000" filter="url(#b1wsofcfptcsoq1)" font-family="sans-serif" font-size="14" font-weight="bold" lengthAdjust="spacing" textLength="138" x="164" y="1015.7109">Reader Server Side</text><line style="stroke:#D4AC0D;stroke-width:1.0;stroke-dasharray:1.0,2.0;" x1="302" x2="442.5" y1="1010.4141" y2="1010.4141"/></g><!--class RemotePluginFactorySpi--><g id="elem_RemotePluginFactorySpi"><rect codeLine="78" fill="#FEFECE" height="122.4844" id="RemotePluginFactorySpi" rx="2.5" ry="2.5" style="stroke:#D4AC0D;stroke-width:2.0;" width="312" x="595" y="255.7402"/><ellipse cx="663.25" cy="271.7402" fill="#B4A7E5" rx="11" ry="11" style="stroke:#181818;stroke-width:1.0;"/><path d="M664.2031,268.3809 L664.2031,275.0371 L665.9219,275.0371 Q666.5313,275.0371 666.7969,275.2715 Q667.0625,275.5059 667.0625,275.8965 Q667.0625,276.2715 666.7969,276.5059 Q666.5313,276.7402 665.9219,276.7402 L660.7813,276.7402 Q660.1719,276.7402 659.9063,276.5059 Q659.6406,276.2715 659.6406,275.8809 Q659.6406,275.5059 659.9063,275.2715 Q660.1719,275.0371 660.7813,275.0371 L662.5,275.0371 L662.5,268.3809 L660.7813,268.3809 Q660.1719,268.3809 659.9063,268.1465 Q659.6406,267.9121 659.6406,267.5215 Q659.6406,267.1465 659.9063,266.9121 Q660.1719,266.6777 660.7813,266.6777 L665.9219,266.6777 Q666.5313,266.6777 666.7969,266.9121 Q667.0625,267.1465 667.0625,267.5215 Q667.0625,267.9121 666.7969,268.1465 Q666.5313,268.3809 665.9219,268.3809 L664.2031,268.3809 Z " fill="#000000"/><ellipse cx="688.75" cy="271.2402" fill="#84BE84" rx="3" ry="3" style="stroke:#038048;stroke-width:1.0;"/><text fill="#000000" font-family="sans-serif" font-size="14" font-style="italic" lengthAdjust="spacing" textLength="156" x="694.75" y="277.5371">RemotePluginFactorySpi</text><line style="stroke:#D4AC0D;stroke-width:2.0;" x1="596" x2="906" y1="287.7402" y2="287.7402"/><line style="stroke:#D4AC0D;stroke-width:2.0;" x1="596" x2="906" y1="295.7402" y2="295.7402"/><ellipse cx="606" cy="310.5508" fill="#84BE84" rx="3" ry="3" style="stroke:#038048;stroke-width:1.0;"/><text fill="#000000" font-family="sans-serif" font-size="14" lengthAdjust="spacing" textLength="260" x="615" y="314.8477">String getDistributedRemoteApiVersion ()</text><ellipse cx="606" cy="329.1719" fill="#84BE84" rx="3" ry="3" style="stroke:#038048;stroke-width:1.0;"/><text fill="#000000" font-family="sans-serif" font-size="14" lengthAdjust="spacing" textLength="199" x="615" y="333.4688">String getCommonApiVersion ()</text><ellipse cx="606" cy="347.793" fill="#84BE84" rx="3" ry="3" style="stroke:#038048;stroke-width:1.0;"/><text fill="#000000" font-family="sans-serif" font-size="14" lengthAdjust="spacing" textLength="199" x="615" y="352.0898">String getRemotePluginName ()</text><ellipse cx="606" cy="366.4141" fill="#84BE84" rx="3" ry="3" style="stroke:#038048;stroke-width:1.0;"/><text fill="#000000" font-family="sans-serif" font-size="14" lengthAdjust="spacing" textLength="286" x="615" y="370.7109">AbstractRemotePluginSpi getRemotePlugin ()</text></g><!--class AbstractRemotePluginSpi--><g id="elem_AbstractRemotePluginSpi"><rect codeLine="85" fill="#FEFECE" height="103.8633" id="AbstractRemotePluginSpi" rx="2.5" ry="2.5" style="stroke:#D4AC0D;stroke-width:2.0;" width="286" x="719" y="456.7402"/><ellipse cx="772.25" cy="472.7402" fill="#B4A7E5" rx="11" ry="11" style="stroke:#181818;stroke-width:1.0;"/><path d="M773.2031,469.3809 L773.2031,476.0371 L774.9219,476.0371 Q775.5313,476.0371 775.7969,476.2715 Q776.0625,476.5059 776.0625,476.8965 Q776.0625,477.2715 775.7969,477.5059 Q775.5313,477.7402 774.9219,477.7402 L769.7813,477.7402 Q769.1719,477.7402 768.9063,477.5059 Q768.6406,477.2715 768.6406,476.8809 Q768.6406,476.5059 768.9063,476.2715 Q769.1719,476.0371 769.7813,476.0371 L771.5,476.0371 L771.5,469.3809 L769.7813,469.3809 Q769.1719,469.3809 768.9063,469.1465 Q768.6406,468.9121 768.6406,468.5215 Q768.6406,468.1465 768.9063,467.9121 Q769.1719,467.6777 769.7813,467.6777 L774.9219,467.6777 Q775.5313,467.6777 775.7969,467.9121 Q776.0625,468.1465 776.0625,468.5215 Q776.0625,468.9121 775.7969,469.1465 Q775.5313,469.3809 774.9219,469.3809 L773.2031,469.3809 Z " fill="#000000"/><ellipse cx="797.75" cy="472.2402" fill="#84BE84" rx="3" ry="3" style="stroke:#038048;stroke-width:1.0;"/><text fill="#000000" font-family="sans-serif" font-size="14" font-style="italic" lengthAdjust="spacing" textLength="160" x="803.75" y="478.5371">AbstractRemotePluginSpi</text><line style="stroke:#D4AC0D;stroke-width:2.0;" x1="720" x2="1004" y1="488.7402" y2="488.7402"/><line style="stroke:#D4AC0D;stroke-width:2.0;" x1="720" x2="1004" y1="496.7402" y2="496.7402"/><ellipse cx="730" cy="511.5508" fill="#84BE84" rx="3" ry="3" style="stroke:#038048;stroke-width:1.0;"/><text fill="#000000" font-family="sans-serif" font-size="14" lengthAdjust="spacing" textLength="111" x="739" y="515.8477">String getName ()</text><ellipse cx="730" cy="530.1719" fill="#84BE84" rx="3" ry="3" style="stroke:#038048;stroke-width:1.0;"/><text fill="#000000" font-family="sans-serif" font-size="14" lengthAdjust="spacing" textLength="260" x="739" y="534.4688">String executeRemotely (String jsonData)</text><ellipse cx="730" cy="548.793" fill="#84BE84" rx="3" ry="3" style="stroke:#038048;stroke-width:1.0;"/><text fill="#000000" font-family="sans-serif" font-size="14" lengthAdjust="spacing" textLength="125" x="739" y="553.0898">void onUnregister ()</text></g><!--class RemotePluginSpi--><g id="elem_RemotePluginSpi"><rect codeLine="90" fill="#FEFECE" height="118.4844" id="RemotePluginSpi" rx="2.5" ry="2.5" style="stroke:#D4AC0D;stroke-width:2.0;" width="771" x="476.5" y="621.7402"/><ellipse cx="798.25" cy="637.7402" fill="#B4A7E5" rx="11" ry="11" style="stroke:#181818;stroke-width:1.0;"/><path d="M799.2031,634.3809 L799.2031,641.0371 L800.9219,641.0371 Q801.5313,641.0371 801.7969,641.2715 Q802.0625,641.5059 802.0625,641.8965 Q802.0625,642.2715 801.7969,642.5059 Q801.5313,642.7402 800.9219,642.7402 L795.7813,642.7402 Q795.1719,642.7402 794.9063,642.5059 Q794.6406,642.2715 794.6406,641.8809 Q794.6406,641.5059 794.9063,641.2715 Q795.1719,641.0371 795.7813,641.0371 L797.5,641.0371 L797.5,634.3809 L795.7813,634.3809 Q795.1719,634.3809 794.9063,634.1465 Q794.6406,633.9121 794.6406,633.5215 Q794.6406,633.1465 794.9063,632.9121 Q795.1719,632.6777 795.7813,632.6777 L800.9219,632.6777 Q801.5313,632.6777 801.7969,632.9121 Q802.0625,633.1465 802.0625,633.5215 Q802.0625,633.9121 801.7969,634.1465 Q801.5313,634.3809 800.9219,634.3809 L799.2031,634.3809 Z " fill="#000000"/><ellipse cx="823.75" cy="637.2402" fill="#84BE84" rx="3" ry="3" style="stroke:#038048;stroke-width:1.0;"/><text fill="#000000" font-family="sans-serif" font-size="14" font-style="italic" lengthAdjust="spacing" textLength="108" x="829.75" y="643.5371">RemotePluginSpi</text><line style="stroke:#D4AC0D;stroke-width:2.0;" x1="477.5" x2="1246.5" y1="653.7402" y2="653.7402"/><ellipse cx="487.5" cy="691.1719" fill="#84BE84" rx="3" ry="3" style="stroke:#038048;stroke-width:1.0;"/><text fill="#000000" font-family="sans-serif" font-size="14" lengthAdjust="spacing" textLength="309" x="496.5" y="695.4688">void connect (RemotePluginApi remotePluginApi)</text><ellipse cx="487.5" cy="709.793" fill="#84BE84" rx="3" ry="3" style="stroke:#038048;stroke-width:1.0;"/><text fill="#000000" font-family="sans-serif" font-size="14" lengthAdjust="spacing" textLength="599" x="496.5" y="714.0898">RemoteReaderSpi createRemoteReader (String remoteReaderName, String localReaderName)</text><ellipse cx="487.5" cy="728.4141" fill="#84BE84" rx="3" ry="3" style="stroke:#038048;stroke-width:1.0;"/><text fill="#000000" font-family="sans-serif" font-size="14" lengthAdjust="spacing" textLength="745" x="496.5" y="732.7109">ObservableRemoteReaderSpi createObservableRemoteReader (String remoteReaderName, String localReaderName)</text><line style="stroke:#D4AC0D;stroke-width:1.0;stroke-dasharray:1.0,2.0;" x1="477.5" x2="793" y1="671.0508" y2="671.0508"/><text fill="#000000" filter="url(#b1wsofcfptcsoq1)" font-family="sans-serif" font-size="14" font-weight="bold" lengthAdjust="spacing" textLength="138" x="793" y="676.3477">Reader Server Side</text><line style="stroke:#D4AC0D;stroke-width:1.0;stroke-dasharray:1.0,2.0;" x1="931" x2="1246.5" y1="671.0508" y2="671.0508"/></g><!--class ObservableRemotePluginSpi--><g id="elem_ObservableRemotePluginSpi"><rect codeLine="96" fill="#FEFECE" height="182.3477" id="ObservableRemotePluginSpi" rx="2.5" ry="2.5" style="stroke:#D4AC0D;stroke-width:2.0;" width="483" x="516.5" y="880.7402"/><ellipse cx="658.25" cy="896.7402" fill="#B4A7E5" rx="11" ry="11" style="stroke:#181818;stroke-width:1.0;"/><path d="M659.2031,893.3809 L659.2031,900.0371 L660.9219,900.0371 Q661.5313,900.0371 661.7969,900.2715 Q662.0625,900.5059 662.0625,900.8965 Q662.0625,901.2715 661.7969,901.5059 Q661.5313,901.7402 660.9219,901.7402 L655.7813,901.7402 Q655.1719,901.7402 654.9063,901.5059 Q654.6406,901.2715 654.6406,900.8809 Q654.6406,900.5059 654.9063,900.2715 Q655.1719,900.0371 655.7813,900.0371 L657.5,900.0371 L657.5,893.3809 L655.7813,893.3809 Q655.1719,893.3809 654.9063,893.1465 Q654.6406,892.9121 654.6406,892.5215 Q654.6406,892.1465 654.9063,891.9121 Q655.1719,891.6777 655.7813,891.6777 L660.9219,891.6777 Q661.5313,891.6777 661.7969,891.9121 Q662.0625,892.1465 662.0625,892.5215 Q662.0625,892.9121 661.7969,893.1465 Q661.5313,893.3809 660.9219,893.3809 L659.2031,893.3809 Z " fill="#000000"/><ellipse cx="683.75" cy="896.2402" fill="#84BE84" rx="3" ry="3" style="stroke:#038048;stroke-width:1.0;"/><text fill="#000000" font-family="sans-serif" font-size="14" font-style="italic" lengthAdjust="spacing" textLength="180" x="689.75" y="902.5371">ObservableRemotePluginSpi</text><line style="stroke:#D4AC0D;stroke-width:2.0;" x1="517.5" x2="998.5" y1="912.7402" y2="912.7402"/><ellipse cx="527.5" cy="950.1719" fill="#84BE84" rx="3" ry="3" style="stroke:#038048;stroke-width:1.0;"/><text fill="#000000" font-family="sans-serif" font-size="14" lengthAdjust="spacing" textLength="457" x="536.5" y="954.4688">void connect (ObservableRemotePluginApi observableRemotePluginApi)</text><line style="stroke:#D4AC0D;stroke-width:1.0;stroke-dasharray:1.0,2.0;" x1="517.5" x2="615" y1="930.0508" y2="930.0508"/><text fill="#000000" filter="url(#b1wsofcfptcsoq0)" font-family="sans-serif" font-size="14" font-weight="bold" lengthAdjust="spacing" textLength="131" x="615" y="935.3477">Reader Client Side</text><text fill="#000000" font-family="sans-serif" font-size="14" lengthAdjust="spacing" textLength="9" x="750" y="935.3477">&amp;</text><text fill="#000000" filter="url(#b1wsofcfptcsoq1)" font-family="sans-serif" font-size="14" font-weight="bold" lengthAdjust="spacing" textLength="138" x="763" y="935.3477">Reader Server Side</text><line style="stroke:#D4AC0D;stroke-width:1.0;stroke-dasharray:1.0,2.0;" x1="901" x2="998.5" y1="930.0508" y2="930.0508"/><ellipse cx="527.5" cy="991.4141" fill="#84BE84" rx="3" ry="3" style="stroke:#038048;stroke-width:1.0;"/><text fill="#008000" font-family="sans-serif" font-size="14" lengthAdjust="spacing" textLength="242" x="540.5" y="995.7109">ExecutorService getExecutorService ()</text><line style="stroke:#D4AC0D;stroke-width:1.0;stroke-dasharray:1.0,2.0;" x1="517.5" x2="692.5" y1="971.293" y2="971.293"/><text fill="#000000" filter="url(#b1wsofcfptcsoq0)" font-family="sans-serif" font-size="14" font-weight="bold" lengthAdjust="spacing" textLength="131" x="692.5" y="976.5898">Reader Client Side</text><line style="stroke:#D4AC0D;stroke-width:1.0;stroke-dasharray:1.0,2.0;" x1="823.5" x2="998.5" y1="971.293" y2="971.293"/><ellipse cx="527.5" cy="1032.6563" fill="#84BE84" rx="3" ry="3" style="stroke:#038048;stroke-width:1.0;"/><text fill="#000000" font-family="sans-serif" font-size="14" lengthAdjust="spacing" textLength="167" x="536.5" y="1036.9531">void onStartObservation ()</text><ellipse cx="527.5" cy="1051.2773" fill="#84BE84" rx="3" ry="3" style="stroke:#038048;stroke-width:1.0;"/><text fill="#000000" font-family="sans-serif" font-size="14" lengthAdjust="spacing" textLength="166" x="536.5" y="1055.5742">void onStopObservation ()</text><line style="stroke:#D4AC0D;stroke-width:1.0;stroke-dasharray:1.0,2.0;" x1="517.5" x2="689" y1="1012.5352" y2="1012.5352"/><text fill="#000000" filter="url(#b1wsofcfptcsoq1)" font-family="sans-serif" font-size="14" font-weight="bold" lengthAdjust="spacing" textLength="138" x="689" y="1017.832">Reader Server Side</text><line style="stroke:#D4AC0D;stroke-width:1.0;stroke-dasharray:1.0,2.0;" x1="827" x2="998.5" y1="1012.5352" y2="1012.5352"/></g><!--class RemotePoolPluginSpi--><g id="elem_RemotePoolPluginSpi"><rect codeLine="105" fill="#FEFECE" height="81.2422" id="RemotePoolPluginSpi" rx="2.5" ry="2.5" style="stroke:#D4AC0D;stroke-width:2.0;" width="625" x="659.5" y="769.7402"/><ellipse cx="894.25" cy="785.7402" fill="#B4A7E5" rx="11" ry="11" style="stroke:#181818;stroke-width:1.0;"/><path d="M895.2031,782.3809 L895.2031,789.0371 L896.9219,789.0371 Q897.5313,789.0371 897.7969,789.2715 Q898.0625,789.5059 898.0625,789.8965 Q898.0625,790.2715 897.7969,790.5059 Q897.5313,790.7402 896.9219,790.7402 L891.7813,790.7402 Q891.1719,790.7402 890.9063,790.5059 Q890.6406,790.2715 890.6406,789.8809 Q890.6406,789.5059 890.9063,789.2715 Q891.1719,789.0371 891.7813,789.0371 L893.5,789.0371 L893.5,782.3809 L891.7813,782.3809 Q891.1719,782.3809 890.9063,782.1465 Q890.6406,781.9121 890.6406,781.5215 Q890.6406,781.1465 890.9063,780.9121 Q891.1719,780.6777 891.7813,780.6777 L896.9219,780.6777 Q897.5313,780.6777 897.7969,780.9121 Q898.0625,781.1465 898.0625,781.5215 Q898.0625,781.9121 897.7969,782.1465 Q897.5313,782.3809 896.9219,782.3809 L895.2031,782.3809 Z " fill="#000000"/><ellipse cx="919.75" cy="785.2402" fill="#84BE84" rx="3" ry="3" style="stroke:#038048;stroke-width:1.0;"/><text fill="#000000" font-family="sans-serif" font-size="14" font-style="italic" lengthAdjust="spacing" textLength="136" x="925.75" y="791.5371">RemotePoolPluginSpi</text><line style="stroke:#D4AC0D;stroke-width:2.0;" x1="660.5" x2="1283.5" y1="801.7402" y2="801.7402"/><ellipse cx="670.5" cy="839.1719" fill="#84BE84" rx="3" ry="3" style="stroke:#038048;stroke-width:1.0;"/><text fill="#000000" font-family="sans-serif" font-size="14" lengthAdjust="spacing" textLength="599" x="679.5" y="843.4688">RemoteReaderSpi createRemoteReader (String remoteReaderName, String localReaderName)</text><line style="stroke:#D4AC0D;stroke-width:1.0;stroke-dasharray:1.0,2.0;" x1="660.5" x2="885.5" y1="819.0508" y2="819.0508"/><text fill="#000000" filter="url(#b1wsofcfptcsoq2)" font-family="sans-serif" font-size="14" font-weight="bold" lengthAdjust="spacing" textLength="173" x="885.5" y="824.3477">Pool Reader Server Side</text><line style="stroke:#D4AC0D;stroke-width:1.0;stroke-dasharray:1.0,2.0;" x1="1058.5" x2="1283.5" y1="819.0508" y2="819.0508"/></g><!--class RemoteReaderSpi--><g id="elem_RemoteReaderSpi"><rect codeLine="110" fill="#FEFECE" height="85.2422" id="RemoteReaderSpi" rx="2.5" ry="2.5" style="stroke:#D4AC0D;stroke-width:2.0;" width="286" x="849" y="1141.7402"/><ellipse cx="924.25" cy="1157.7402" fill="#B4A7E5" rx="11" ry="11" style="stroke:#181818;stroke-width:1.0;"/><path d="M925.2031,1154.3809 L925.2031,1161.0371 L926.9219,1161.0371 Q927.5313,1161.0371 927.7969,1161.2715 Q928.0625,1161.5059 928.0625,1161.8965 Q928.0625,1162.2715 927.7969,1162.5059 Q927.5313,1162.7402 926.9219,1162.7402 L921.7813,1162.7402 Q921.1719,1162.7402 920.9063,1162.5059 Q920.6406,1162.2715 920.6406,1161.8809 Q920.6406,1161.5059 920.9063,1161.2715 Q921.1719,1161.0371 921.7813,1161.0371 L923.5,1161.0371 L923.5,1154.3809 L921.7813,1154.3809 Q921.1719,1154.3809 920.9063,1154.1465 Q920.6406,1153.9121 920.6406,1153.5215 Q920.6406,1153.1465 920.9063,1152.9121 Q921.1719,1152.6777 921.7813,1152.6777 L926.9219,1152.6777 Q927.5313,1152.6777 927.7969,1152.9121 Q928.0625,1153.1465 928.0625,1153.5215 Q928.0625,1153.9121 927.7969,1154.1465 Q927.5313,1154.3809 926.9219,1154.3809 L925.2031,1154.3809 Z " fill="#000000"/><ellipse cx="949.75" cy="1157.2402" fill="#84BE84" rx="3" ry="3" style="stroke:#038048;stroke-width:1.0;"/><text fill="#000000" font-family="sans-serif" font-size="14" font-style="italic" lengthAdjust="spacing" textLength="116" x="955.75" y="1163.5371">RemoteReaderSpi</text><line style="stroke:#D4AC0D;stroke-width:2.0;" x1="850" x2="1134" y1="1173.7402" y2="1173.7402"/><line style="stroke:#D4AC0D;stroke-width:2.0;" x1="850" x2="1134" y1="1181.7402" y2="1181.7402"/><ellipse cx="860" cy="1196.5508" fill="#84BE84" rx="3" ry="3" style="stroke:#038048;stroke-width:1.0;"/><text fill="#000000" font-family="sans-serif" font-size="14" lengthAdjust="spacing" textLength="111" x="869" y="1200.8477">String getName ()</text><ellipse cx="860" cy="1215.1719" fill="#84BE84" rx="3" ry="3" style="stroke:#038048;stroke-width:1.0;"/><text fill="#000000" font-family="sans-serif" font-size="14" lengthAdjust="spacing" textLength="260" x="869" y="1219.4688">String executeRemotely (String jsonData)</text></g><!--class ObservableRemoteReaderSpi--><g id="elem_ObservableRemoteReaderSpi"><rect codeLine="114" fill="#FEFECE" height="99.8633" id="ObservableRemoteReaderSpi" rx="2.5" ry="2.5" style="stroke:#D4AC0D;stroke-width:2.0;" width="231" x="576.5" y="1287.7402"/><ellipse cx="591.5" cy="1303.7402" fill="#B4A7E5" rx="11" ry="11" style="stroke:#181818;stroke-width:1.0;"/><path d="M592.4531,1300.3809 L592.4531,1307.0371 L594.1719,1307.0371 Q594.7813,1307.0371 595.0469,1307.2715 Q595.3125,1307.5059 595.3125,1307.8965 Q595.3125,1308.2715 595.0469,1308.5059 Q594.7813,1308.7402 594.1719,1308.7402 L589.0313,1308.7402 Q588.4219,1308.7402 588.1563,1308.5059 Q587.8906,1308.2715 587.8906,1307.8809 Q587.8906,1307.5059 588.1563,1307.2715 Q588.4219,1307.0371 589.0313,1307.0371 L590.75,1307.0371 L590.75,1300.3809 L589.0313,1300.3809 Q588.4219,1300.3809 588.1563,1300.1465 Q587.8906,1299.9121 587.8906,1299.5215 Q587.8906,1299.1465 588.1563,1298.9121 Q588.4219,1298.6777 589.0313,1298.6777 L594.1719,1298.6777 Q594.7813,1298.6777 595.0469,1298.9121 Q595.3125,1299.1465 595.3125,1299.5215 Q595.3125,1299.9121 595.0469,1300.1465 Q594.7813,1300.3809 594.1719,1300.3809 L592.4531,1300.3809 Z " fill="#000000"/><ellipse cx="610.5" cy="1303.2402" fill="#84BE84" rx="3" ry="3" style="stroke:#038048;stroke-width:1.0;"/><text fill="#000000" font-family="sans-serif" font-size="14" font-style="italic" lengthAdjust="spacing" textLength="188" x="616.5" y="1309.5371">ObservableRemoteReaderSpi</text><line style="stroke:#D4AC0D;stroke-width:2.0;" x1="577.5" x2="806.5" y1="1319.7402" y2="1319.7402"/><ellipse cx="587.5" cy="1357.1719" fill="#84BE84" rx="3" ry="3" style="stroke:#038048;stroke-width:1.0;"/><text fill="#000000" font-family="sans-serif" font-size="14" lengthAdjust="spacing" textLength="167" x="596.5" y="1361.4688">void onStartObservation ()</text><ellipse cx="587.5" cy="1375.793" fill="#84BE84" rx="3" ry="3" style="stroke:#038048;stroke-width:1.0;"/><text fill="#000000" font-family="sans-serif" font-size="14" lengthAdjust="spacing" textLength="166" x="596.5" y="1380.0898">void onStopObservation ()</text><line style="stroke:#D4AC0D;stroke-width:1.0;stroke-dasharray:1.0,2.0;" x1="577.5" x2="623" y1="1337.0508" y2="1337.0508"/><text fill="#000000" filter="url(#b1wsofcfptcsoq1)" font-family="sans-serif" font-size="14" font-weight="bold" lengthAdjust="spacing" textLength="138" x="623" y="1342.3477">Reader Server Side</text><line style="stroke:#D4AC0D;stroke-width:1.0;stroke-dasharray:1.0,2.0;" x1="761" x2="806.5" y1="1337.0508" y2="1337.0508"/></g><!--reverse link AbstractRemotePluginSpi to RemotePluginSpi--><g id="link_AbstractRemotePluginSpi_RemotePluginSpi"><path d="M862,580.8132 C862,594.4062 862,608.4872 862,621.6152 " fill="none" id="AbstractRemotePluginSpi-backto-RemotePluginSpi" style="stroke:#181818;stroke-width:2.0;"/><polygon fill="none" points="855,580.7462,862,560.7462,869,580.7462,855,580.7462" style="stroke:#181818;stroke-width:2.0;"/></g><!--reverse link RemotePluginSpi to ObservableRemotePluginSpi--><g id="link_RemotePluginSpi_ObservableRemotePluginSpi"><path d="M663.652,753.7292 C659.04,758.7142 654.797,764.0432 651,769.7402 C627.762,804.6102 642.112,845.0652 666.908,880.5002 " fill="none" id="RemotePluginSpi-backto-ObservableRemotePluginSpi" style="stroke:#181818;stroke-width:2.0;"/><polygon fill="none" points="659.142,748.3622,678.518,739.7852,668.72,758.5732,659.142,748.3622" style="stroke:#181818;stroke-width:2.0;"/></g><!--reverse link AbstractRemotePluginSpi to RemotePoolPluginSpi--><g id="link_AbstractRemotePluginSpi_RemotePoolPluginSpi"><path d="M1024.87,534.5692 C1123.2,553.2602 1235.12,582.4172 1265,621.7402 C1296.73,663.4952 1297.52,698.5992 1265,739.7402 C1255.76,751.4282 1236.11,761.3572 1211.14,769.7312 " fill="none" id="AbstractRemotePluginSpi-backto-RemotePoolPluginSpi" style="stroke:#181818;stroke-width:2.0;"/><polygon fill="none" points="1023.49,541.4322,1005.1,530.9132,1026.04,527.6662,1023.49,541.4322" style="stroke:#181818;stroke-width:2.0;"/></g><!--reverse link RemoteReaderSpi to ObservableRemoteReaderSpi--><g id="link_RemoteReaderSpi_ObservableRemoteReaderSpi"><path d="M891.676,1235.9032 C858.607,1252.6032 821.906,1271.1372 789.083,1287.7132 " fill="none" id="RemoteReaderSpi-backto-ObservableRemoteReaderSpi" style="stroke:#181818;stroke-width:2.0;"/><polygon fill="none" points="888.619,1229.6062,909.627,1226.8382,894.93,1242.1032,888.619,1229.6062" style="stroke:#181818;stroke-width:2.0;"/></g><!--reverse link ApiProperties to RemotePluginFactorySpi--><g id="link_ApiProperties_RemotePluginFactorySpi"><path codeLine="124" d="M448.683,316.7402 C495.422,316.7402 547.435,316.7402 594.958,316.7402 " fill="none" id="ApiProperties-backto-RemotePluginFactorySpi" style="stroke:#3498DB;stroke-width:2.0;stroke-dasharray:7.0,7.0;"/><polygon fill="#3498DB" points="443.595,316.7402,452.595,320.7402,448.595,316.7402,452.595,312.7402,443.595,316.7402" style="stroke:#3498DB;stroke-width:2.0;"/><text fill="#000000" font-family="sans-serif" font-size="13" lengthAdjust="spacing" textLength="40" x="499.25" y="292.7686">provide</text><polygon fill="#000000" points="480.25,304.6768,489.2951,307.6157,489.2951,301.7378,480.25,304.6768" style="stroke:#000000;stroke-width:1.0;"/><text fill="#000000" font-family="sans-serif" font-size="13" lengthAdjust="spacing" textLength="65" x="493.25" y="310.0596">API version</text></g><!--link RemotePluginFactorySpi to AbstractRemotePluginSpi--><g id="link_RemotePluginFactorySpi_AbstractRemotePluginSpi"><path codeLine="125" d="M786.121,377.8602 C799.995,401.6102 815.842,428.7302 829.453,452.0302 " fill="none" id="RemotePluginFactorySpi-to-AbstractRemotePluginSpi" style="stroke:#3498DB;stroke-width:2.0;stroke-dasharray:7.0,7.0;"/><polygon fill="#3498DB" points="832.145,456.6362,831.0576,446.8476,829.6223,452.3193,824.1505,450.884,832.145,456.6362" style="stroke:#3498DB;stroke-width:2.0;"/><polygon fill="#000000" points="820.5222,421.703,818.4971,412.4105,813.4219,415.3756,820.5222,421.703" style="stroke:#000000;stroke-width:1.0;"/><text fill="#000000" font-family="sans-serif" font-size="13" lengthAdjust="spacing" textLength="40" x="827" y="422.7686">provide</text></g><!--reverse link RemotePluginApi to RemotePluginSpi--><g id="link_RemotePluginApi_RemotePluginSpi"><path codeLine="127" d="M411.446,680.7402 C431.868,680.7402 453.697,680.7402 476.323,680.7402 " fill="none" id="RemotePluginApi-backto-RemotePluginSpi" style="stroke:#27AE60;stroke-width:2.0;stroke-dasharray:7.0,7.0;"/><polygon fill="#27AE60" points="406.285,680.7402,415.285,684.7402,411.285,680.7402,415.285,676.7402,406.285,680.7402" style="stroke:#27AE60;stroke-width:2.0;"/><polygon fill="#000000" points="423.25,668.3857,432.2951,671.3247,432.2951,665.4468,423.25,668.3857" style="stroke:#000000;stroke-width:1.0;"/><text fill="#000000" font-family="sans-serif" font-size="13" lengthAdjust="spacing" textLength="21" x="437.25" y="673.7686">use</text></g><!--link RemotePluginSpi to RemoteReaderSpi--><g id="link_RemotePluginSpi_RemoteReaderSpi"><path codeLine="128" d="M684.982,740.0382 C674.621,748.6212 665.418,758.4612 658,769.7402 C648.109,784.7792 645.814,837.4932 658,850.7402 C712.2,909.6582 962.8,821.8222 1017,880.7402 C1081.02,950.3332 1043.01,1070.9912 1014.55,1136.9332 " fill="none" id="RemotePluginSpi-to-RemoteReaderSpi" style="stroke:#3498DB;stroke-width:2.0;stroke-dasharray:7.0,7.0;"/><polygon fill="#3498DB" points="1012.51,1141.5852,1019.7761,1134.9367,1014.51,1137.0027,1012.444,1131.7366,1012.51,1141.5852" style="stroke:#3498DB;stroke-width:2.0;"/><polygon fill="#000000" points="1059.1942,975.7325,1055.6769,966.8962,1051.1548,970.6512,1059.1942,975.7325" style="stroke:#000000;stroke-width:1.0;"/><text fill="#000000" font-family="sans-serif" font-size="13" lengthAdjust="spacing" textLength="36" x="1065" y="977.2686">create</text></g><!--link RemotePluginSpi to ObservableRemoteReaderSpi--><g id="link_RemotePluginSpi_ObservableRemoteReaderSpi"><path codeLine="129" d="M657.758,739.9492 C592.756,770.1502 529.764,814.9932 499,880.7402 C431.687,1024.5942 562.055,1198.3152 639.833,1283.8682 " fill="none" id="RemotePluginSpi-to-ObservableRemoteReaderSpi" style="stroke:#3498DB;stroke-width:2.0;stroke-dasharray:7.0,7.0;"/><polygon fill="#3498DB" points="643.266,1287.6242,640.1482,1278.2819,639.8933,1283.933,634.2422,1283.6782,643.266,1287.6242" style="stroke:#3498DB;stroke-width:2.0;"/><polygon fill="#000000" points="522.8353,1107.383,526.0706,1098.4397,520.1959,1098.2461,522.8353,1107.383" style="stroke:#000000;stroke-width:1.0;"/><text fill="#000000" font-family="sans-serif" font-size="13" lengthAdjust="spacing" textLength="36" x="532" y="1107.7686">create</text></g><!--reverse link ObservableRemotePluginApi to ObservableRemotePluginSpi--><g id="link_ObservableRemotePluginApi_ObservableRemotePluginSpi"><path codeLine="131" d="M448.576,971.7402 C470.929,971.7402 493.751,971.7402 516.365,971.7402 " fill="none" id="ObservableRemotePluginApi-backto-ObservableRemotePluginSpi" style="stroke:#27AE60;stroke-width:2.0;stroke-dasharray:7.0,7.0;"/><polygon fill="#27AE60" points="443.513,971.7402,452.513,975.7402,448.513,971.7402,452.513,967.7402,443.513,971.7402" style="stroke:#27AE60;stroke-width:2.0;"/><polygon fill="#000000" points="462,959.3857,471.0451,962.3247,471.0451,956.4468,462,959.3857" style="stroke:#000000;stroke-width:1.0;"/><text fill="#000000" font-family="sans-serif" font-size="13" lengthAdjust="spacing" textLength="21" x="476" y="964.7686">use</text></g><!--link RemotePoolPluginSpi to RemoteReaderSpi--><g id="link_RemotePoolPluginSpi_RemoteReaderSpi"><path codeLine="133" d="M1099.42,850.8362 C1111.01,859.0182 1121.28,868.8742 1129,880.7402 C1173.13,948.5322 1160.33,988.1662 1129,1062.7402 C1116.19,1093.2322 1091.04,1118.8972 1065.74,1138.5992 " fill="none" id="RemotePoolPluginSpi-to-RemoteReaderSpi" style="stroke:#3498DB;stroke-width:2.0;stroke-dasharray:7.0,7.0;"/><polygon fill="#3498DB" points="1061.68,1141.7102,1071.2561,1139.4083,1065.6479,1138.6679,1066.3883,1133.0597,1061.68,1141.7102" style="stroke:#3498DB;stroke-width:2.0;"/><polygon fill="#000000" points="1161.4188,976.8518,1165.3892,968.2097,1159.5512,967.5264,1161.4188,976.8518" style="stroke:#000000;stroke-width:1.0;"/><text fill="#000000" font-family="sans-serif" font-size="13" lengthAdjust="spacing" textLength="36" x="1171" y="977.2686">create</text></g><!--link ObservableRemotePluginSpi to RemoteReaderSpi--><!--SRC=[pLXjJzj84FxkNx5Nf2jnpmQIq9I88ZdskeVQ0qHe9NHtGekz92uRhxMxXaOL__tsnObVi25tfTBbKpmxyppFpiwCNqGY2BQ0_7t4ounWu81R_SU94ovOSfqB73iCBwZ0pbTqXnoK9TAfx-wvRy1sVxS_S7RxpjweP-4q1aB3MQ_1-_VWudVu1vH_vALFSu9pna72UOuvY34OWxaG6H_lxCp5WaIKK1RH67CteekT6xOZq3N1A7TYx4GckiKa__9abZePGMB7-YN6DqcAWN_ruHnUxe7mNNWG7ZJCVH3smq4uR9W70Ex34Mnw3q4m2YP1q33l0z_pmw3VCBy5ay0V-AEA-TFnoKSm61wy2oOLw-Sf1FsH1z_kgbmv3fYA9P5v4NCaG4pJrmBSKtOBxXCn1oc-1tUOyOIcWDu0kTTKv0iYmon-cwGPOcW1kC0CKx7Ci3UXBCRCLna5Mzv1u0TXg-DnpN4oz4PmlzNHhoC6mTwat-e8QuvmSZ2Gr7f_y2HGUYjHFa6S6_-BUHBTffXpK8Nr6AFtrIM9T8a9eVUFK51qEsCqJ-E2EOGXz64xMU4I33r_Dv2GvpX-1k_maE7uw4Z21Z20_XEmQqyu6iewiEQ9BFILiKoJP3tBcUonPuapxQQvXz0FHqzobyxlu73e1IlwjRscu9hap_Ch9xsVIRWVJfvaNxaMjLvm5zOQymU6SVeizKnvQUw3S0J39xdNlaLF5UGhSvDzkGdvKdDxiexWSzpQjUyFu7wLUbbdDZFHFpsvW2SNUYeIFDCZasPw_bvTQKGEZFtg2eortPOhnMmEof4CE2MvK2CXvsY6mKBDpZB61eVNSbDZaipcGYVyoBRFCPAwvHuId0embKfj-t17-Hs1xNCzui4PoMU9d3Efn9XY9kUERVVgc1d95oMQSTe0pT1A53tKRDkioMlPZhPzUiqba1hmAtklPISJLKulG4qfAMdK8PYSMrOcCLGwNr4sSt54aenZrzmGvOs9ORToLtJDNV4LG1oec-9tBVXDf4e4lB9jEUiHaQILKpFQl2mvOpJ3J2IOw_2QfG3IOD-vG2A97a09DvLWwGnyWUVJuzCJxVfWc9DKbjiDYZ0mF6QBtbgQ-hdkvgVekgMGEvh4Cfd67Twf0jekb7pbD0sGGBrsBUN9Rg1gutfzf0t5HNQBgEtgrLIoiVfrhn6lbkzm7M8grFwgWITeWNilbKoJYUUJkIfANilPQn2YI50cAwP4RYy1uxYSrkArVy4wmwAjIhyKJntRlQuedouMDDt8jIf8fV6HgtSj5KYbLKSbkH5RZNkePCEijkQY2xap6QtwYcNy3KUvA2g5B3jEhddMdrE6Pucw7xJhxpWvfH9_4t8syGrtyHzhijGQqJJ5aLWrKDckh7xTs6UptIA6aNZKJwojeNvRpJH28qJQ6aqpD0T9awjz_GTOMq-dVPnLpsd3yzburFtwKWVQFObfrqhl1xKt1Htg5xsnUJ83KBSIPMelYSojxBocQRltijLDqwb0J1If46qZQ-r7imwtfzfs_MZn0wrRVTPHWE3VRFEdDc9ru9hr9su-fOQVF6WtQjHIJRrHkrJ-dqhjmNfGBn0UvpHAj0-th8uxl4lmZN2F6i-KMyMdY3786BsJulzAlRFZzNU5mquqXTHHlOymmL5TLLLES-HicQyWO_d-ek8UXQr3olCf-KnDTuHr7tmBWDKzprVAkyTcOmzMsmZOS2FczV2JTtdwsRmTTkjo_fGlcJ5E_tQQm0NAzEBoa_dmjdfoH8RKV1Rx_c1LdoYtLj_5fFqV]--></g></svg>