<?xml version="1.0" encoding="UTF-8" standalone="no"?><svg xmlns="http://www.w3.org/2000/svg" xmlns:xlink="http://www.w3.org/1999/xlink" contentScriptType="application/ecmascript" contentStyleType="text/css" height="3127.5px" preserveAspectRatio="none" style="width:2742px;height:3127px;background:#FFFFFF;" version="1.1" viewBox="0 0 2742 3127" width="2742.5px" zoomAndPan="magnify"><defs><filter height="1" id="b1aaa159qh6ff00" width="1" x="0" y="0"><feFlood flood-color="#90EE90" result="flood"/><feComposite in="SourceGraphic" in2="flood" operator="over"/></filter><filter height="1" id="b1aaa159qh6ff01" width="1" x="0" y="0"><feFlood flood-color="#DDA0DD" result="flood"/><feComposite in="SourceGraphic" in2="flood" operator="over"/></filter><filter height="1" id="b1aaa159qh6ff02" width="1" x="0" y="0"><feFlood flood-color="#ADD8E6" result="flood"/><feComposite in="SourceGraphic" in2="flood" operator="over"/></filter></defs><g><text fill="#000000" font-family="sans-serif" font-size="45" lengthAdjust="spacing" textLength="1265" x="722.5" y="46.7139">Keyple - keyple-distributed-remote-java-api - 2.0.+ (23/08/2021)</text><rect fill="#DDDDDD" height="245.1172" rx="12.5" ry="12.5" style="stroke:#000000;stroke-width:2.5;" width="1425" x="641.25" y="76.6016"/><text fill="#000000" font-family="sans-serif" font-size="35" lengthAdjust="spacing" text-decoration="underline" textLength="220" x="656.25" y="125.4346">Colors legend</text><text fill="#000000" font-family="sans-serif" font-size="35" lengthAdjust="spacing" textLength="10" x="886.25" y="125.4346">:</text><ellipse cx="670" cy="158.3984" fill="#000000" rx="6.25" ry="6.25" style="stroke:#000000;stroke-width:0.0;"/><text fill="#000000" font-family="sans-serif" font-size="35" lengthAdjust="spacing" text-decoration="underline" textLength="642.5" x="688.75" y="169.458">Keyple Distributed solution usage modes</text><text fill="#000000" font-family="sans-serif" font-size="35" lengthAdjust="spacing" textLength="10" x="1341.25" y="169.458">:</text><rect fill="#000000" height="8.75" style="stroke:#000000;stroke-width:0.0;" width="8.75" x="708.75" y="201.1719"/><text fill="#000000" filter="url(#b1aaa159qh6ff00)" font-family="sans-serif" font-size="35" font-weight="bold" lengthAdjust="spacing" textLength="327.5" x="721.25" y="213.4814">Reader Client Side</text><text fill="#000000" font-family="sans-serif" font-size="35" lengthAdjust="spacing" textLength="292.5" x="1058.75" y="213.4814">(Remote Plugin on</text><text fill="#000000" font-family="sans-serif" font-size="35" font-weight="bold" lengthAdjust="spacing" textLength="120" x="1361.25" y="213.4814">Server</text><text fill="#000000" font-family="sans-serif" font-size="35" lengthAdjust="spacing" textLength="12.5" x="1481.25" y="213.4814">)</text><rect fill="#000000" height="8.75" style="stroke:#000000;stroke-width:0.0;" width="8.75" x="708.75" y="245.1953"/><text fill="#000000" filter="url(#b1aaa159qh6ff01)" font-family="sans-serif" font-size="35" font-weight="bold" lengthAdjust="spacing" textLength="345" x="721.25" y="257.5049">Reader Server Side</text><text fill="#000000" font-family="sans-serif" font-size="35" lengthAdjust="spacing" textLength="292.5" x="1076.25" y="257.5049">(Remote Plugin on</text><text fill="#000000" font-family="sans-serif" font-size="35" font-weight="bold" lengthAdjust="spacing" textLength="102.5" x="1378.75" y="257.5049">Client</text><text fill="#000000" font-family="sans-serif" font-size="35" lengthAdjust="spacing" textLength="60" x="1491.25" y="257.5049">with</text><text fill="#000000" font-family="sans-serif" font-size="35" font-weight="bold" lengthAdjust="spacing" textLength="110" x="1561.25" y="257.5049">Plugin</text><text fill="#000000" font-family="sans-serif" font-size="35" lengthAdjust="spacing" textLength="32.5" x="1681.25" y="257.5049">or</text><text fill="#000000" font-family="sans-serif" font-size="35" font-weight="bold" lengthAdjust="spacing" textLength="315" x="1723.75" y="257.5049">ObservablePlugin</text><text fill="#000000" font-family="sans-serif" font-size="35" lengthAdjust="spacing" textLength="12.5" x="2038.75" y="257.5049">)</text><rect fill="#000000" height="8.75" style="stroke:#000000;stroke-width:0.0;" width="8.75" x="708.75" y="289.2188"/><text fill="#000000" filter="url(#b1aaa159qh6ff02)" font-family="sans-serif" font-size="35" font-weight="bold" lengthAdjust="spacing" textLength="345" x="721.25" y="301.5283">Reader Server Side</text><text fill="#000000" font-family="sans-serif" font-size="35" lengthAdjust="spacing" textLength="292.5" x="1076.25" y="301.5283">(Remote Plugin on</text><text fill="#000000" font-family="sans-serif" font-size="35" font-weight="bold" lengthAdjust="spacing" textLength="102.5" x="1378.75" y="301.5283">Client</text><text fill="#000000" font-family="sans-serif" font-size="35" lengthAdjust="spacing" textLength="60" x="1491.25" y="301.5283">with</text><text fill="#000000" font-family="sans-serif" font-size="35" font-weight="bold" lengthAdjust="spacing" textLength="187.5" x="1561.25" y="301.5283">PoolPlugin</text><text fill="#000000" font-family="sans-serif" font-size="35" lengthAdjust="spacing" textLength="12.5" x="1748.75" y="301.5283">)</text><!--MD5=[7442f3b126ee602ae02566c1a49e158a]
cluster api--><polygon fill="#F8F9F9" points="40,359.2188,805,359.2188,822.5,418.2422,2700,418.2422,2700,3111.7188,40,3111.7188,40,359.2188" style="stroke:#000000;stroke-width:3.75;"/><line style="stroke:#000000;stroke-width:3.75;" x1="40" x2="822.5" y1="418.2422" y2="418.2422"/><text fill="#000000" font-family="sans-serif" font-size="35" font-weight="bold" lengthAdjust="spacing" textLength="750" x="50" y="400.5518">org.eclipse.keyple.core.distributed.remote</text><!--MD5=[f7e0e2453c87923036c1ac2adfb9cbf0]
cluster spi--><polygon fill="#F2F3F4" points="932.5,469.2188,1000,469.2188,1017.5,528.2422,2640,528.2422,2640,3051.7188,932.5,3051.7188,932.5,469.2188" style="stroke:#000000;stroke-width:3.75;"/><line style="stroke:#000000;stroke-width:3.75;" x1="932.5" x2="1017.5" y1="528.2422" y2="528.2422"/><text fill="#000000" font-family="sans-serif" font-size="35" font-weight="bold" lengthAdjust="spacing" textLength="52.5" x="942.5" y="510.5518">spi</text><!--MD5=[120218adfd8782b0057db0a1b8294250]
class ApiProperties--><rect codeLine="56" fill="#FEFECE" height="154.5898" id="ApiProperties" style="stroke:#D4AC0D;stroke-width:3.75;" width="620" x="272.5" y="610.4688"/><ellipse cx="310" cy="650.4688" fill="#ADD1B2" rx="27.5" ry="27.5" style="stroke:#ADD1B2;stroke-width:2.5;"/><path d="M315,641.7188 Q315.5078,640.4688 316.0938,639.8438 Q316.6797,639.2188 317.3438,639.2188 Q318.5156,639.2188 319.2578,639.9219 Q320,640.625 320,642.2656 L320,646.1719 Q320,647.8125 319.2969,648.5156 Q318.5938,649.2188 317.5,649.2188 Q316.5234,649.2188 315.8984,648.7891 Q315.2734,648.3594 315,647.2266 Q314.8828,646.4453 314.4531,646.0156 Q313.6719,645.1953 312.2656,644.7266 Q310.8594,644.2188 309.4531,644.2188 Q307.6953,644.2188 306.2109,644.9219 Q304.7656,645.625 303.6328,647.1875 Q302.5,648.75 302.5,650.8984 L302.5,653.2031 Q302.5,655.7813 304.6094,657.5 Q306.7188,659.2188 310.4688,659.2188 Q312.6953,659.2188 314.2578,658.7109 Q315.1563,658.4375 316.1719,657.5391 Q316.8359,657.0313 317.1875,656.875 Q317.5391,656.7188 317.9688,656.7188 Q318.7891,656.7188 319.375,657.3828 Q320,658.0078 320,658.9063 Q320,659.7656 319.1406,660.7813 Q317.8906,662.2656 315.8984,663.0859 Q313.2813,664.2188 310.0781,664.2188 Q306.3281,664.2188 303.3203,662.7344 Q300.8984,661.5625 299.1797,659.0234 Q297.5,656.4844 297.5,653.4766 L297.5,650.7422 Q297.5,647.6172 298.9844,644.8828 Q300.5078,642.1484 303.125,640.7031 Q305.7813,639.2188 308.75,639.2188 Q310.5469,639.2188 312.1094,639.8438 Q313.6719,640.4688 315,641.7188 Z " fill="#000000"/><ellipse cx="357.5" cy="649.2188" fill="#84BE84" rx="7.5" ry="7.5" style="stroke:#038048;stroke-width:2.5;"/><text fill="#000000" font-family="sans-serif" font-size="30" font-style="italic" font-weight="bold" lengthAdjust="spacing" textLength="60" x="372.5" y="662.7441">final</text><text fill="#000000" font-family="sans-serif" font-size="30" font-style="italic" lengthAdjust="spacing" textLength="445" x="440" y="662.7441">DistributedRemoteApiProperties</text><line style="stroke:#D4AC0D;stroke-width:3.75;" x1="275" x2="890" y1="690.4688" y2="690.4688"/><ellipse cx="300" cy="717.9688" rx="7.5" ry="7.5" style="stroke:#038048;stroke-width:2.5;fill:none;"/><text fill="#000000" font-family="sans-serif" font-size="27.5" font-weight="bold" lengthAdjust="spacing" text-decoration="underline" textLength="57.5" x="322.5" y="729.0161">final</text><text fill="#000000" font-family="sans-serif" font-size="27.5" lengthAdjust="spacing" text-decoration="underline" textLength="190" x="387.5" y="729.0161">String VERSION</text><line style="stroke:#D4AC0D;stroke-width:3.75;" x1="275" x2="890" y1="745.0586" y2="745.0586"/><!--MD5=[3bdcfc6a224040be6cb3c1df3ec20060]
class RemotePluginApi--><rect codeLine="59" fill="#FEFECE" height="179.1797" id="RemotePluginApi" style="stroke:#D4AC0D;stroke-width:3.75;" width="517.5" x="278.75" y="1422.9688"/><ellipse cx="391.875" cy="1462.9688" fill="#B4A7E5" rx="27.5" ry="27.5" style="stroke:#B4A7E5;stroke-width:2.5;"/><path d="M394.375,1455.4688 L394.375,1470.4688 L399.375,1470.4688 L400.5859,1470.4688 L401.875,1472.0313 L401.875,1472.9688 L401.875,1473.9063 L400.5859,1475.4688 L399.375,1475.4688 L384.375,1475.4688 L383.1641,1475.4688 L381.875,1473.9063 L381.875,1472.9688 L381.875,1472.0313 L383.1641,1470.4688 L384.375,1470.4688 L389.375,1470.4688 L389.375,1455.4688 L384.375,1455.4688 L383.1641,1455.4688 L381.875,1453.9063 L381.875,1452.9688 L381.875,1452.0313 L383.1641,1450.4688 L384.375,1450.4688 L399.375,1450.4688 L400.5859,1450.4688 L401.875,1452.0313 L401.875,1452.9688 L401.875,1453.9063 L400.5859,1455.4688 L399.375,1455.4688 L394.375,1455.4688 Z " fill="#000000"/><ellipse cx="455.625" cy="1461.7188" fill="#84BE84" rx="7.5" ry="7.5" style="stroke:#038048;stroke-width:2.5;"/><text fill="#000000" font-family="sans-serif" font-size="30" font-style="italic" lengthAdjust="spacing" textLength="242.5" x="470.625" y="1475.2441">RemotePluginApi</text><line style="stroke:#D4AC0D;stroke-width:3.75;" x1="281.25" x2="793.75" y1="1502.9688" y2="1502.9688"/><ellipse cx="306.25" cy="1575.0586" fill="#84BE84" rx="7.5" ry="7.5" style="stroke:#038048;stroke-width:2.5;"/><text fill="#000000" font-family="sans-serif" font-size="27.5" lengthAdjust="spacing" textLength="452.5" x="328.75" y="1586.106">void onReaderEvent (String jsonData)</text><line style="stroke:#D4AC0D;stroke-width:2.5;stroke-dasharray:1.0,2.0;" x1="281.25" x2="405" y1="1540.2637" y2="1540.2637"/><text fill="#000000" filter="url(#b1aaa159qh6ff01)" font-family="sans-serif" font-size="27.5" font-weight="bold" lengthAdjust="spacing" textLength="265" x="405" y="1550.2661">Reader Server Side</text><line style="stroke:#D4AC0D;stroke-width:2.5;stroke-dasharray:1.0,2.0;" x1="670" x2="793.75" y1="1540.2637" y2="1540.2637"/><!--MD5=[0db98e29c29f308f95f437c44cb51af8]
class ObservableRemotePluginApi--><rect codeLine="63" fill="#FEFECE" height="292.9492" id="ObservableRemotePluginApi" style="stroke:#D4AC0D;stroke-width:3.75;" width="802.5" x="81.25" y="1966.7188"/><ellipse cx="255.625" cy="2006.7188" fill="#B4A7E5" rx="27.5" ry="27.5" style="stroke:#B4A7E5;stroke-width:2.5;"/><path d="M258.125,1999.2188 L258.125,2014.2188 L263.125,2014.2188 L264.3359,2014.2188 L265.625,2015.7813 L265.625,2016.7188 L265.625,2017.6563 L264.3359,2019.2188 L263.125,2019.2188 L248.125,2019.2188 L246.9141,2019.2188 L245.625,2017.6563 L245.625,2016.7188 L245.625,2015.7813 L246.9141,2014.2188 L248.125,2014.2188 L253.125,2014.2188 L253.125,1999.2188 L248.125,1999.2188 L246.9141,1999.2188 L245.625,1997.6563 L245.625,1996.7188 L245.625,1995.7813 L246.9141,1994.2188 L248.125,1994.2188 L263.125,1994.2188 L264.3359,1994.2188 L265.625,1995.7813 L265.625,1996.7188 L265.625,1997.6563 L264.3359,1999.2188 L263.125,1999.2188 L258.125,1999.2188 Z " fill="#000000"/><ellipse cx="319.375" cy="2005.4688" fill="#84BE84" rx="7.5" ry="7.5" style="stroke:#038048;stroke-width:2.5;"/><text fill="#000000" font-family="sans-serif" font-size="30" font-style="italic" lengthAdjust="spacing" textLength="405" x="334.375" y="2018.9941">ObservableRemotePluginApi</text><line style="stroke:#D4AC0D;stroke-width:3.75;" x1="83.75" x2="881.25" y1="2046.7188" y2="2046.7188"/><ellipse cx="108.75" cy="2118.8086" fill="#84BE84" rx="7.5" ry="7.5" style="stroke:#038048;stroke-width:2.5;"/><text fill="#000000" font-family="sans-serif" font-size="27.5" lengthAdjust="spacing" textLength="737.5" x="131.25" y="2129.856">void addRemoteReader (RemoteReaderSpi remoteReaderSpi)</text><ellipse cx="108.75" cy="2153.3984" fill="#84BE84" rx="7.5" ry="7.5" style="stroke:#038048;stroke-width:2.5;"/><text fill="#000000" font-family="sans-serif" font-size="27.5" lengthAdjust="spacing" textLength="657.5" x="131.25" y="2164.4458">void removeRemoteReader (Sting remoteReaderName)</text><line style="stroke:#D4AC0D;stroke-width:2.5;stroke-dasharray:1.0,2.0;" x1="83.75" x2="356.25" y1="2084.0137" y2="2084.0137"/><text fill="#000000" filter="url(#b1aaa159qh6ff00)" font-family="sans-serif" font-size="27.5" font-weight="bold" lengthAdjust="spacing" textLength="252.5" x="356.25" y="2094.0161">Reader Client Side</text><line style="stroke:#D4AC0D;stroke-width:2.5;stroke-dasharray:1.0,2.0;" x1="608.75" x2="881.25" y1="2084.0137" y2="2084.0137"/><ellipse cx="108.75" cy="2232.5781" fill="#84BE84" rx="7.5" ry="7.5" style="stroke:#038048;stroke-width:2.5;"/><text fill="#000000" font-family="sans-serif" font-size="27.5" lengthAdjust="spacing" textLength="435" x="131.25" y="2243.6255">void onPluginEvent (String jsonData)</text><line style="stroke:#D4AC0D;stroke-width:2.5;stroke-dasharray:1.0,2.0;" x1="83.75" x2="350" y1="2197.7832" y2="2197.7832"/><text fill="#000000" filter="url(#b1aaa159qh6ff01)" font-family="sans-serif" font-size="27.5" font-weight="bold" lengthAdjust="spacing" textLength="265" x="350" y="2207.7856">Reader Server Side</text><line style="stroke:#D4AC0D;stroke-width:2.5;stroke-dasharray:1.0,2.0;" x1="615" x2="881.25" y1="2197.7832" y2="2197.7832"/><!--MD5=[c2370bc74128b93bd072b6f31e9991b0]
class RemotePluginFactorySpi--><rect codeLine="72" fill="#FEFECE" height="258.3594" id="RemotePluginFactorySpi" style="stroke:#D4AC0D;stroke-width:3.75;" width="600" x="1237.5" y="559.2188"/><ellipse cx="1342.5" cy="599.2188" fill="#B4A7E5" rx="27.5" ry="27.5" style="stroke:#B4A7E5;stroke-width:2.5;"/><path d="M1345,591.7188 L1345,606.7188 L1350,606.7188 L1351.2109,606.7188 L1352.5,608.2813 L1352.5,609.2188 L1352.5,610.1563 L1351.2109,611.7188 L1350,611.7188 L1335,611.7188 L1333.7891,611.7188 L1332.5,610.1563 L1332.5,609.2188 L1332.5,608.2813 L1333.7891,606.7188 L1335,606.7188 L1340,606.7188 L1340,591.7188 L1335,591.7188 L1333.7891,591.7188 L1332.5,590.1563 L1332.5,589.2188 L1332.5,588.2813 L1333.7891,586.7188 L1335,586.7188 L1350,586.7188 L1351.2109,586.7188 L1352.5,588.2813 L1352.5,589.2188 L1352.5,590.1563 L1351.2109,591.7188 L1350,591.7188 L1345,591.7188 Z " fill="#000000"/><ellipse cx="1405" cy="597.9688" fill="#84BE84" rx="7.5" ry="7.5" style="stroke:#038048;stroke-width:2.5;"/><text fill="#000000" font-family="sans-serif" font-size="30" font-style="italic" lengthAdjust="spacing" textLength="342.5" x="1420" y="611.4941">RemotePluginFactorySpi</text><line style="stroke:#D4AC0D;stroke-width:3.75;" x1="1240" x2="1835" y1="639.2188" y2="639.2188"/><line style="stroke:#D4AC0D;stroke-width:3.75;" x1="1240" x2="1835" y1="659.2188" y2="659.2188"/><ellipse cx="1265" cy="686.7188" fill="#84BE84" rx="7.5" ry="7.5" style="stroke:#038048;stroke-width:2.5;"/><text fill="#000000" font-family="sans-serif" font-size="27.5" lengthAdjust="spacing" textLength="495" x="1287.5" y="697.7661">String getDistributedRemoteApiVersion ()</text><ellipse cx="1265" cy="721.3086" fill="#84BE84" rx="7.5" ry="7.5" style="stroke:#038048;stroke-width:2.5;"/><text fill="#000000" font-family="sans-serif" font-size="27.5" lengthAdjust="spacing" textLength="380" x="1287.5" y="732.356">String getCommonApiVersion ()</text><ellipse cx="1265" cy="755.8984" fill="#84BE84" rx="7.5" ry="7.5" style="stroke:#038048;stroke-width:2.5;"/><text fill="#000000" font-family="sans-serif" font-size="27.5" lengthAdjust="spacing" textLength="370" x="1287.5" y="766.9458">String getRemotePluginName ()</text><ellipse cx="1265" cy="790.4883" fill="#84BE84" rx="7.5" ry="7.5" style="stroke:#038048;stroke-width:2.5;"/><text fill="#000000" font-family="sans-serif" font-size="27.5" lengthAdjust="spacing" textLength="535" x="1287.5" y="801.5356">AbstractRemotePluginSpi getRemotePlugin ()</text><!--MD5=[136cd6dbe7577038ede23d483af1b410]
class AbstractRemotePluginSpi--><rect codeLine="79" fill="#FEFECE" height="223.7695" id="AbstractRemotePluginSpi" style="stroke:#D4AC0D;stroke-width:3.75;" width="560" x="1427.5" y="1011.7188"/><ellipse cx="1508.875" cy="1051.7188" fill="#B4A7E5" rx="27.5" ry="27.5" style="stroke:#B4A7E5;stroke-width:2.5;"/><path d="M1511.375,1044.2188 L1511.375,1059.2188 L1516.375,1059.2188 L1517.5859,1059.2188 L1518.875,1060.7813 L1518.875,1061.7188 L1518.875,1062.6563 L1517.5859,1064.2188 L1516.375,1064.2188 L1501.375,1064.2188 L1500.1641,1064.2188 L1498.875,1062.6563 L1498.875,1061.7188 L1498.875,1060.7813 L1500.1641,1059.2188 L1501.375,1059.2188 L1506.375,1059.2188 L1506.375,1044.2188 L1501.375,1044.2188 L1500.1641,1044.2188 L1498.875,1042.6563 L1498.875,1041.7188 L1498.875,1040.7813 L1500.1641,1039.2188 L1501.375,1039.2188 L1516.375,1039.2188 L1517.5859,1039.2188 L1518.875,1040.7813 L1518.875,1041.7188 L1518.875,1042.6563 L1517.5859,1044.2188 L1516.375,1044.2188 L1511.375,1044.2188 Z " fill="#000000"/><ellipse cx="1566.125" cy="1050.4688" fill="#84BE84" rx="7.5" ry="7.5" style="stroke:#038048;stroke-width:2.5;"/><text fill="#000000" font-family="sans-serif" font-size="30" font-style="italic" lengthAdjust="spacing" textLength="355" x="1581.125" y="1063.9941">AbstractRemotePluginSpi</text><line style="stroke:#D4AC0D;stroke-width:3.75;" x1="1430" x2="1985" y1="1091.7188" y2="1091.7188"/><line style="stroke:#D4AC0D;stroke-width:3.75;" x1="1430" x2="1985" y1="1111.7188" y2="1111.7188"/><ellipse cx="1455" cy="1139.2188" fill="#84BE84" rx="7.5" ry="7.5" style="stroke:#038048;stroke-width:2.5;"/><text fill="#000000" font-family="sans-serif" font-size="27.5" lengthAdjust="spacing" textLength="210" x="1477.5" y="1150.2661">String getName ()</text><ellipse cx="1455" cy="1173.8086" fill="#84BE84" rx="7.5" ry="7.5" style="stroke:#038048;stroke-width:2.5;"/><text fill="#000000" font-family="sans-serif" font-size="27.5" lengthAdjust="spacing" textLength="495" x="1477.5" y="1184.856">String executeRemotely (String jsonData)</text><ellipse cx="1455" cy="1208.3984" fill="#84BE84" rx="7.5" ry="7.5" style="stroke:#038048;stroke-width:2.5;"/><text fill="#000000" font-family="sans-serif" font-size="27.5" lengthAdjust="spacing" textLength="240" x="1477.5" y="1219.4458">void onUnregister ()</text><!--MD5=[733b899168be945616a1d8aa95c72981]
class RemotePluginSpi--><rect codeLine="84" fill="#FEFECE" height="248.3594" id="RemotePluginSpi" style="stroke:#D4AC0D;stroke-width:3.75;" width="1467.5" x="973.75" y="1389.2188"/><ellipse cx="1561.875" cy="1429.2188" fill="#B4A7E5" rx="27.5" ry="27.5" style="stroke:#B4A7E5;stroke-width:2.5;"/><path d="M1564.375,1421.7188 L1564.375,1436.7188 L1569.375,1436.7188 L1570.5859,1436.7188 L1571.875,1438.2813 L1571.875,1439.2188 L1571.875,1440.1563 L1570.5859,1441.7188 L1569.375,1441.7188 L1554.375,1441.7188 L1553.1641,1441.7188 L1551.875,1440.1563 L1551.875,1439.2188 L1551.875,1438.2813 L1553.1641,1436.7188 L1554.375,1436.7188 L1559.375,1436.7188 L1559.375,1421.7188 L1554.375,1421.7188 L1553.1641,1421.7188 L1551.875,1420.1563 L1551.875,1419.2188 L1551.875,1418.2813 L1553.1641,1416.7188 L1554.375,1416.7188 L1569.375,1416.7188 L1570.5859,1416.7188 L1571.875,1418.2813 L1571.875,1419.2188 L1571.875,1420.1563 L1570.5859,1421.7188 L1569.375,1421.7188 L1564.375,1421.7188 Z " fill="#000000"/><ellipse cx="1625.625" cy="1427.9688" fill="#84BE84" rx="7.5" ry="7.5" style="stroke:#038048;stroke-width:2.5;"/><text fill="#000000" font-family="sans-serif" font-size="30" font-style="italic" lengthAdjust="spacing" textLength="242.5" x="1640.625" y="1441.4941">RemotePluginSpi</text><line style="stroke:#D4AC0D;stroke-width:3.75;" x1="976.25" x2="2438.75" y1="1469.2188" y2="1469.2188"/><ellipse cx="1001.25" cy="1541.3086" fill="#84BE84" rx="7.5" ry="7.5" style="stroke:#038048;stroke-width:2.5;"/><text fill="#000000" font-family="sans-serif" font-size="27.5" lengthAdjust="spacing" textLength="582.5" x="1023.75" y="1552.356">void connect (RemotePluginApi remotePluginApi)</text><ellipse cx="1001.25" cy="1575.8984" fill="#84BE84" rx="7.5" ry="7.5" style="stroke:#038048;stroke-width:2.5;"/><text fill="#000000" font-family="sans-serif" font-size="27.5" lengthAdjust="spacing" textLength="1122.5" x="1023.75" y="1586.9458">RemoteReaderSpi createRemoteReader (String remoteReaderName, String localReaderName)</text><ellipse cx="1001.25" cy="1610.4883" fill="#84BE84" rx="7.5" ry="7.5" style="stroke:#038048;stroke-width:2.5;"/><text fill="#000000" font-family="sans-serif" font-size="27.5" lengthAdjust="spacing" textLength="1402.5" x="1023.75" y="1621.5356">ObservableRemoteReaderSpi createObservableRemoteReader (String remoteReaderName, String localReaderName)</text><line style="stroke:#D4AC0D;stroke-width:2.5;stroke-dasharray:1.0,2.0;" x1="976.25" x2="1575" y1="1506.5137" y2="1506.5137"/><text fill="#000000" filter="url(#b1aaa159qh6ff01)" font-family="sans-serif" font-size="27.5" font-weight="bold" lengthAdjust="spacing" textLength="265" x="1575" y="1516.5161">Reader Server Side</text><line style="stroke:#D4AC0D;stroke-width:2.5;stroke-dasharray:1.0,2.0;" x1="1840" x2="2438.75" y1="1506.5137" y2="1506.5137"/><!--MD5=[309cd6c2721908ddd074502139737511]
class ObservableRemotePluginSpi--><rect codeLine="90" fill="#FEFECE" height="292.9492" id="ObservableRemotePluginSpi" style="stroke:#D4AC0D;stroke-width:3.75;" width="930" x="1065" y="1966.7188"/><ellipse cx="1303.125" cy="2006.7188" fill="#B4A7E5" rx="27.5" ry="27.5" style="stroke:#B4A7E5;stroke-width:2.5;"/><path d="M1305.625,1999.2188 L1305.625,2014.2188 L1310.625,2014.2188 L1311.8359,2014.2188 L1313.125,2015.7813 L1313.125,2016.7188 L1313.125,2017.6563 L1311.8359,2019.2188 L1310.625,2019.2188 L1295.625,2019.2188 L1294.4141,2019.2188 L1293.125,2017.6563 L1293.125,2016.7188 L1293.125,2015.7813 L1294.4141,2014.2188 L1295.625,2014.2188 L1300.625,2014.2188 L1300.625,1999.2188 L1295.625,1999.2188 L1294.4141,1999.2188 L1293.125,1997.6563 L1293.125,1996.7188 L1293.125,1995.7813 L1294.4141,1994.2188 L1295.625,1994.2188 L1310.625,1994.2188 L1311.8359,1994.2188 L1313.125,1995.7813 L1313.125,1996.7188 L1313.125,1997.6563 L1311.8359,1999.2188 L1310.625,1999.2188 L1305.625,1999.2188 Z " fill="#000000"/><ellipse cx="1366.875" cy="2005.4688" fill="#84BE84" rx="7.5" ry="7.5" style="stroke:#038048;stroke-width:2.5;"/><text fill="#000000" font-family="sans-serif" font-size="30" font-style="italic" lengthAdjust="spacing" textLength="405" x="1381.875" y="2018.9941">ObservableRemotePluginSpi</text><line style="stroke:#D4AC0D;stroke-width:3.75;" x1="1067.5" x2="1992.5" y1="2046.7188" y2="2046.7188"/><ellipse cx="1092.5" cy="2118.8086" fill="#84BE84" rx="7.5" ry="7.5" style="stroke:#038048;stroke-width:2.5;"/><text fill="#000000" font-family="sans-serif" font-size="27.5" lengthAdjust="spacing" textLength="865" x="1115" y="2129.856">void connect (ObservableRemotePluginApi observableRemotePluginApi)</text><line style="stroke:#D4AC0D;stroke-width:2.5;stroke-dasharray:1.0,2.0;" x1="1067.5" x2="1255" y1="2084.0137" y2="2084.0137"/><text fill="#000000" filter="url(#b1aaa159qh6ff00)" font-family="sans-serif" font-size="27.5" font-weight="bold" lengthAdjust="spacing" textLength="252.5" x="1255" y="2094.0161">Reader Client Side</text><text fill="#000000" font-family="sans-serif" font-size="27.5" lengthAdjust="spacing" textLength="17.5" x="1515" y="2094.0161">&amp;</text><text fill="#000000" filter="url(#b1aaa159qh6ff01)" font-family="sans-serif" font-size="27.5" font-weight="bold" lengthAdjust="spacing" textLength="265" x="1540" y="2094.0161">Reader Server Side</text><line style="stroke:#D4AC0D;stroke-width:2.5;stroke-dasharray:1.0,2.0;" x1="1805" x2="1992.5" y1="2084.0137" y2="2084.0137"/><ellipse cx="1092.5" cy="2197.9883" fill="#84BE84" rx="7.5" ry="7.5" style="stroke:#038048;stroke-width:2.5;"/><text fill="#000000" font-family="sans-serif" font-size="27.5" lengthAdjust="spacing" textLength="320" x="1115" y="2209.0356">void onStartObservation ()</text><ellipse cx="1092.5" cy="2232.5781" fill="#84BE84" rx="7.5" ry="7.5" style="stroke:#038048;stroke-width:2.5;"/><text fill="#000000" font-family="sans-serif" font-size="27.5" lengthAdjust="spacing" textLength="317.5" x="1115" y="2243.6255">void onStopObservation ()</text><line style="stroke:#D4AC0D;stroke-width:2.5;stroke-dasharray:1.0,2.0;" x1="1067.5" x2="1397.5" y1="2163.1934" y2="2163.1934"/><text fill="#000000" filter="url(#b1aaa159qh6ff01)" font-family="sans-serif" font-size="27.5" font-weight="bold" lengthAdjust="spacing" textLength="265" x="1397.5" y="2173.1958">Reader Server Side</text><line style="stroke:#D4AC0D;stroke-width:2.5;stroke-dasharray:1.0,2.0;" x1="1662.5" x2="1992.5" y1="2163.1934" y2="2163.1934"/><!--MD5=[c067c0f4268e0e2ca3a257b5e7c1541b]
class RemotePoolPluginSpi--><rect codeLine="97" fill="#FEFECE" height="179.1797" id="RemotePoolPluginSpi" style="stroke:#D4AC0D;stroke-width:3.75;" width="1187.5" x="1411.25" y="1711.7188"/><ellipse cx="1828.125" cy="1751.7188" fill="#B4A7E5" rx="27.5" ry="27.5" style="stroke:#B4A7E5;stroke-width:2.5;"/><path d="M1830.625,1744.2188 L1830.625,1759.2188 L1835.625,1759.2188 L1836.8359,1759.2188 L1838.125,1760.7813 L1838.125,1761.7188 L1838.125,1762.6563 L1836.8359,1764.2188 L1835.625,1764.2188 L1820.625,1764.2188 L1819.4141,1764.2188 L1818.125,1762.6563 L1818.125,1761.7188 L1818.125,1760.7813 L1819.4141,1759.2188 L1820.625,1759.2188 L1825.625,1759.2188 L1825.625,1744.2188 L1820.625,1744.2188 L1819.4141,1744.2188 L1818.125,1742.6563 L1818.125,1741.7188 L1818.125,1740.7813 L1819.4141,1739.2188 L1820.625,1739.2188 L1835.625,1739.2188 L1836.8359,1739.2188 L1838.125,1740.7813 L1838.125,1741.7188 L1838.125,1742.6563 L1836.8359,1744.2188 L1835.625,1744.2188 L1830.625,1744.2188 Z " fill="#000000"/><ellipse cx="1891.875" cy="1750.4688" fill="#84BE84" rx="7.5" ry="7.5" style="stroke:#038048;stroke-width:2.5;"/><text fill="#000000" font-family="sans-serif" font-size="30" font-style="italic" lengthAdjust="spacing" textLength="305" x="1906.875" y="1763.9941">RemotePoolPluginSpi</text><line style="stroke:#D4AC0D;stroke-width:3.75;" x1="1413.75" x2="2596.25" y1="1791.7188" y2="1791.7188"/><ellipse cx="1438.75" cy="1863.8086" fill="#84BE84" rx="7.5" ry="7.5" style="stroke:#038048;stroke-width:2.5;"/><text fill="#000000" font-family="sans-serif" font-size="27.5" lengthAdjust="spacing" textLength="1122.5" x="1461.25" y="1874.856">RemoteReaderSpi createRemoteReader (String remoteReaderName, String localReaderName)</text><line style="stroke:#D4AC0D;stroke-width:2.5;stroke-dasharray:1.0,2.0;" x1="1413.75" x2="1838.75" y1="1829.0137" y2="1829.0137"/><text fill="#000000" filter="url(#b1aaa159qh6ff02)" font-family="sans-serif" font-size="27.5" font-weight="bold" lengthAdjust="spacing" textLength="332.5" x="1838.75" y="1839.0161">Pool Reader Server Side</text><line style="stroke:#D4AC0D;stroke-width:2.5;stroke-dasharray:1.0,2.0;" x1="2171.25" x2="2596.25" y1="1829.0137" y2="1829.0137"/><!--MD5=[3937379067c1c7d1f35002e0ca836dbd]
class RemoteReaderSpi--><rect codeLine="102" fill="#FEFECE" height="189.1797" id="RemoteReaderSpi" style="stroke:#D4AC0D;stroke-width:3.75;" width="560" x="1730" y="2454.2188"/><ellipse cx="1856.875" cy="2494.2188" fill="#B4A7E5" rx="27.5" ry="27.5" style="stroke:#B4A7E5;stroke-width:2.5;"/><path d="M1859.375,2486.7188 L1859.375,2501.7188 L1864.375,2501.7188 L1865.5859,2501.7188 L1866.875,2503.2813 L1866.875,2504.2188 L1866.875,2505.1563 L1865.5859,2506.7188 L1864.375,2506.7188 L1849.375,2506.7188 L1848.1641,2506.7188 L1846.875,2505.1563 L1846.875,2504.2188 L1846.875,2503.2813 L1848.1641,2501.7188 L1849.375,2501.7188 L1854.375,2501.7188 L1854.375,2486.7188 L1849.375,2486.7188 L1848.1641,2486.7188 L1846.875,2485.1563 L1846.875,2484.2188 L1846.875,2483.2813 L1848.1641,2481.7188 L1849.375,2481.7188 L1864.375,2481.7188 L1865.5859,2481.7188 L1866.875,2483.2813 L1866.875,2484.2188 L1866.875,2485.1563 L1865.5859,2486.7188 L1864.375,2486.7188 L1859.375,2486.7188 Z " fill="#000000"/><ellipse cx="1920.625" cy="2492.9688" fill="#84BE84" rx="7.5" ry="7.5" style="stroke:#038048;stroke-width:2.5;"/><text fill="#000000" font-family="sans-serif" font-size="30" font-style="italic" lengthAdjust="spacing" textLength="257.5" x="1935.625" y="2506.4941">RemoteReaderSpi</text><line style="stroke:#D4AC0D;stroke-width:3.75;" x1="1732.5" x2="2287.5" y1="2534.2188" y2="2534.2188"/><line style="stroke:#D4AC0D;stroke-width:3.75;" x1="1732.5" x2="2287.5" y1="2554.2188" y2="2554.2188"/><ellipse cx="1757.5" cy="2581.7188" fill="#84BE84" rx="7.5" ry="7.5" style="stroke:#038048;stroke-width:2.5;"/><text fill="#000000" font-family="sans-serif" font-size="27.5" lengthAdjust="spacing" textLength="210" x="1780" y="2592.7661">String getName ()</text><ellipse cx="1757.5" cy="2616.3086" fill="#84BE84" rx="7.5" ry="7.5" style="stroke:#038048;stroke-width:2.5;"/><text fill="#000000" font-family="sans-serif" font-size="27.5" lengthAdjust="spacing" textLength="495" x="1780" y="2627.356">String executeRemotely (String jsonData)</text><!--MD5=[bde6ad16048b75cbc3ab150f56eec96c]
class ObservableRemoteReaderSpi--><rect codeLine="106" fill="#FEFECE" height="213.7695" id="ObservableRemoteReaderSpi" style="stroke:#D4AC0D;stroke-width:3.75;" width="527.5" x="1166.25" y="2796.7188"/><ellipse cx="1203.75" cy="2836.7188" fill="#B4A7E5" rx="27.5" ry="27.5" style="stroke:#B4A7E5;stroke-width:2.5;"/><path d="M1206.25,2829.2188 L1206.25,2844.2188 L1211.25,2844.2188 L1212.4609,2844.2188 L1213.75,2845.7813 L1213.75,2846.7188 L1213.75,2847.6563 L1212.4609,2849.2188 L1211.25,2849.2188 L1196.25,2849.2188 L1195.0391,2849.2188 L1193.75,2847.6563 L1193.75,2846.7188 L1193.75,2845.7813 L1195.0391,2844.2188 L1196.25,2844.2188 L1201.25,2844.2188 L1201.25,2829.2188 L1196.25,2829.2188 L1195.0391,2829.2188 L1193.75,2827.6563 L1193.75,2826.7188 L1193.75,2825.7813 L1195.0391,2824.2188 L1196.25,2824.2188 L1211.25,2824.2188 L1212.4609,2824.2188 L1213.75,2825.7813 L1213.75,2826.7188 L1213.75,2827.6563 L1212.4609,2829.2188 L1211.25,2829.2188 L1206.25,2829.2188 Z " fill="#000000"/><ellipse cx="1251.25" cy="2835.4688" fill="#84BE84" rx="7.5" ry="7.5" style="stroke:#038048;stroke-width:2.5;"/><text fill="#000000" font-family="sans-serif" font-size="30" font-style="italic" lengthAdjust="spacing" textLength="420" x="1266.25" y="2848.9941">ObservableRemoteReaderSpi</text><line style="stroke:#D4AC0D;stroke-width:3.75;" x1="1168.75" x2="1691.25" y1="2876.7188" y2="2876.7188"/><ellipse cx="1193.75" cy="2948.8086" fill="#84BE84" rx="7.5" ry="7.5" style="stroke:#038048;stroke-width:2.5;"/><text fill="#000000" font-family="sans-serif" font-size="27.5" lengthAdjust="spacing" textLength="320" x="1216.25" y="2959.856">void onStartObservation ()</text><ellipse cx="1193.75" cy="2983.3984" fill="#84BE84" rx="7.5" ry="7.5" style="stroke:#038048;stroke-width:2.5;"/><text fill="#000000" font-family="sans-serif" font-size="27.5" lengthAdjust="spacing" textLength="317.5" x="1216.25" y="2994.4458">void onStopObservation ()</text><line style="stroke:#D4AC0D;stroke-width:2.5;stroke-dasharray:1.0,2.0;" x1="1168.75" x2="1297.5" y1="2914.0137" y2="2914.0137"/><text fill="#000000" filter="url(#b1aaa159qh6ff01)" font-family="sans-serif" font-size="27.5" font-weight="bold" lengthAdjust="spacing" textLength="265" x="1297.5" y="2924.0161">Reader Server Side</text><line style="stroke:#D4AC0D;stroke-width:2.5;stroke-dasharray:1.0,2.0;" x1="1562.5" x2="1691.25" y1="2914.0137" y2="2914.0137"/><!--MD5=[a9485228ae7e4941f36f86641e2e8fb1]
reverse link AbstractRemotePluginSpi to RemotePluginSpi--><path d="M1707.5,1288.8113 C1707.5,1322.3663 1707.5,1357.1687 1707.5,1388.9738 " fill="none" id="AbstractRemotePluginSpi-backto-RemotePluginSpi" style="stroke:#A80036;stroke-width:2.5;"/><polygon fill="none" points="1690,1287.7163,1707.5,1237.7163,1725,1287.7163,1690,1287.7163" style="stroke:#A80036;stroke-width:2.5;"/><!--MD5=[b1733e4fb8d21da98cd85d581166204b]
reverse link RemotePluginSpi to ObservableRemotePluginSpi--><path d="M1416.78,1673.0713 C1406.68,1685.1413 1397.6425,1698.0113 1390,1711.7188 C1345.52,1791.5037 1377.415,1887.9963 1421.92,1966.0738 " fill="none" id="RemotePluginSpi-backto-ObservableRemotePluginSpi" style="stroke:#A80036;stroke-width:2.5;"/><polygon fill="none" points="1404.65,1660.4513,1452.2525,1637.2088,1429.5325,1685.0637,1404.65,1660.4513" style="stroke:#A80036;stroke-width:2.5;"/><!--MD5=[f70ec21a9947311666aa223098a35785]
reverse link AbstractRemotePluginSpi to RemotePoolPluginSpi--><path d="M2037.98,1150.7038 C2200.615,1181.1663 2383.17,1247.3613 2485,1389.2188 C2549.15,1478.5788 2549.1,1547.3313 2485,1636.7188 C2463.465,1666.7463 2436.075,1691.2938 2405.3325,1711.3538 " fill="none" id="AbstractRemotePluginSpi-backto-RemotePoolPluginSpi" style="stroke:#A80036;stroke-width:2.5;"/><polygon fill="none" points="2034.67,1167.8913,1988.26,1142.3513,2040.4675,1133.3763,2034.67,1167.8913" style="stroke:#A80036;stroke-width:2.5;"/><!--MD5=[66802393e068e625b1512b2c90a160c9]
reverse link RemoteReaderSpi to ObservableRemoteReaderSpi--><path d="M1812.8575,2670.6838 C1745.135,2711.5513 1669.86,2756.9763 1604.1025,2796.6563 " fill="none" id="RemoteReaderSpi-backto-ObservableRemoteReaderSpi" style="stroke:#A80036;stroke-width:2.5;"/><polygon fill="none" points="1804.2425,2655.4438,1856.0925,2644.5938,1822.325,2685.4112,1804.2425,2655.4438" style="stroke:#A80036;stroke-width:2.5;"/><!--MD5=[4174bbe09b6fc05497605efa272e822c]
reverse link ApiProperties to RemotePluginFactorySpi--><path codeLine="116" d="M905.5775,687.9688 C1012.81,687.9688 1131.6825,687.9688 1237.13,687.9688 " fill="none" id="ApiProperties-backto-RemotePluginFactorySpi" style="stroke:#3498DB;stroke-width:2.5;stroke-dasharray:7.0,7.0;"/><polygon fill="#3498DB" points="892.56,687.9688,915.06,697.9688,905.06,687.9688,915.06,677.9688,892.56,687.9688" style="stroke:#3498DB;stroke-width:2.5;"/><text fill="#000000" font-family="sans-serif" font-size="32.5" lengthAdjust="spacing" textLength="100" x="1015" y="631.7065">provide</text><polygon fill="#000000" points="967.5,659.2871,990.1127,666.6344,990.1127,651.9398,967.5,659.2871" style="stroke:#000000;stroke-width:2.5;"/><text fill="#000000" font-family="sans-serif" font-size="32.5" lengthAdjust="spacing" textLength="162.5" x="1000" y="672.5854">API version</text><!--MD5=[c3180e6645f84b9ecb4e0c177783130e]
link RemotePluginFactorySpi to AbstractRemotePluginSpi--><path codeLine="117" d="M1587.585,817.5262 C1610.2625,875.0513 1636.9525,942.7538 1659.3875,999.6663 " fill="none" id="RemotePluginFactorySpi-to-AbstractRemotePluginSpi" style="stroke:#3498DB;stroke-width:2.5;stroke-dasharray:7.0,7.0;"/><polygon fill="#3498DB" points="1664.1075,1011.6413,1665.1561,987.0414,1659.5218,1000.0128,1646.5505,994.3785,1664.1075,1011.6413" style="stroke:#3498DB;stroke-width:2.5;"/><polygon fill="#000000" points="1649.5843,926.2872,1648.1265,902.5555,1634.4558,907.9447,1649.5843,926.2872" style="stroke:#000000;stroke-width:2.5;"/><text fill="#000000" font-family="sans-serif" font-size="32.5" lengthAdjust="spacing" textLength="100" x="1667.5" y="927.9565">provide</text><!--MD5=[703fd44b470e434ace33754d5a67f1d5]
reverse link RemotePluginApi to RemotePluginSpi--><path codeLine="119" d="M809.3125,1512.9688 C860.3575,1512.9688 915.91,1512.9688 973.53,1512.9688 " fill="none" id="RemotePluginApi-backto-RemotePluginSpi" style="stroke:#27AE60;stroke-width:2.5;stroke-dasharray:7.0,7.0;"/><polygon fill="#27AE60" points="796.435,1512.9688,818.935,1522.9688,808.935,1512.9688,818.935,1502.9688,796.435,1512.9688" style="stroke:#27AE60;stroke-width:2.5;"/><polygon fill="#000000" points="840,1483.4082,862.6127,1490.7555,862.6127,1476.0609,840,1483.4082" style="stroke:#000000;stroke-width:2.5;"/><text fill="#000000" font-family="sans-serif" font-size="32.5" lengthAdjust="spacing" textLength="52.5" x="875" y="1496.7065">use</text><!--MD5=[f33d040dcb77d1f7644b5e19c2b3e36f]
link RemotePluginSpi to RemoteReaderSpi--><path codeLine="120" d="M1468.2275,1637.1138 C1444,1658.7338 1422.7475,1683.5263 1407.5,1711.7188 C1388.4725,1746.9038 1380.9325,1861.8162 1407.5,1891.7188 C1595.515,2103.3438 1851.985,1755.0938 2040,1966.7188 C2154.83,2095.9688 2102.375,2312.2813 2055.2125,2441.0438 " fill="none" id="RemotePluginSpi-to-RemoteReaderSpi" style="stroke:#3498DB;stroke-width:2.5;stroke-dasharray:7.0,7.0;"/><polygon fill="#3498DB" points="2050.67,2453.2238,2067.9024,2435.637,2055.0383,2441.5119,2049.1634,2428.6477,2050.67,2453.2238" style="stroke:#3498DB;stroke-width:2.5;"/><polygon fill="#000000" points="2127.3711,2123.5036,2119.9706,2100.9082,2108.1027,2109.5735,2127.3711,2123.5036" style="stroke:#000000;stroke-width:2.5;"/><text fill="#000000" font-family="sans-serif" font-size="32.5" lengthAdjust="spacing" textLength="90" x="2142.5" y="2126.7065">create</text><!--MD5=[15439507e4bbda8d3e271ccdca6cb41b]
link RemotePluginSpi to ObservableRemoteReaderSpi--><path codeLine="121" d="M1385.57,1637.0288 C1244.2,1709.1788 1093.785,1816.4563 1020,1966.7188 C877.2425,2257.4438 1147.1775,2609.5163 1313.3875,2787.2313 " fill="none" id="RemotePluginSpi-to-ObservableRemoteReaderSpi" style="stroke:#3498DB;stroke-width:2.5;stroke-dasharray:7.0,7.0;"/><polygon fill="#3498DB" points="1322.205,2796.6037,1314.0666,2773.3655,1313.6381,2787.5011,1299.5024,2787.0726,1322.205,2796.6037" style="stroke:#3498DB;stroke-width:2.5;"/><polygon fill="#000000" points="1044.2171,2369.6337,1052.9663,2347.5255,1038.3005,2346.6052,1044.2171,2369.6337" style="stroke:#000000;stroke-width:2.5;"/><text fill="#000000" font-family="sans-serif" font-size="32.5" lengthAdjust="spacing" textLength="90" x="1067.5" y="2370.4565">create</text><!--MD5=[39109629a857a6402bd1be6c8a1be968]
reverse link ObservableRemotePluginApi to ObservableRemotePluginSpi--><path codeLine="123" d="M897.6325,2112.9688 C952.3975,2112.9688 1008.8175,2112.9688 1064.355,2112.9688 " fill="none" id="ObservableRemotePluginApi-backto-ObservableRemotePluginSpi" style="stroke:#27AE60;stroke-width:2.5;stroke-dasharray:7.0,7.0;"/><polygon fill="#27AE60" points="884.495,2112.9688,906.995,2122.9688,896.995,2112.9688,906.995,2102.9688,884.495,2112.9688" style="stroke:#27AE60;stroke-width:2.5;"/><polygon fill="#000000" points="929.375,2083.4082,951.9877,2090.7555,951.9877,2076.0609,929.375,2083.4082" style="stroke:#000000;stroke-width:2.5;"/><text fill="#000000" font-family="sans-serif" font-size="32.5" lengthAdjust="spacing" textLength="52.5" x="964.375" y="2096.7065">use</text><!--MD5=[7e3d6c65df78d20144a72b0b4e87ccd9]
link RemotePoolPluginSpi to RemoteReaderSpi--><path codeLine="125" d="M2245.13,1892.1263 C2273.885,1912.3413 2299.41,1936.9238 2317.5,1966.7188 C2384.965,2077.8413 2368.4725,2139.6288 2317.5,2259.2188 C2285.8075,2333.5788 2224.1025,2397.3488 2164.2325,2445.8013 " fill="none" id="RemotePoolPluginSpi-to-RemoteReaderSpi" style="stroke:#3498DB;stroke-width:2.5;stroke-dasharray:7.0,7.0;"/><polygon fill="#3498DB" points="2153.8675,2454.0562,2177.697,2447.8593,2163.6447,2446.268,2165.2359,2432.2157,2153.8675,2454.0562" style="stroke:#3498DB;stroke-width:2.5;"/><polygon fill="#000000" points="2370.6928,2125.7769,2381.2322,2104.464,2366.6919,2102.3395,2370.6928,2125.7769" style="stroke:#000000;stroke-width:2.5;"/><text fill="#000000" font-family="sans-serif" font-size="32.5" lengthAdjust="spacing" textLength="90" x="2395" y="2126.7065">create</text><!--MD5=[f350a7874de73141285b15884b8d9b3a]
link ObservableRemotePluginSpi to RemoteReaderSpi--><!--MD5=[2cbf6d4b06d9d724a14f169c583fc4ce]
@startuml
title
    Keyple - keyple-distributed-remote-java-api - 2.0.+ (23/08/2021)
end title

' == THEME ==

'Couleurs issues de : https://htmlcolorcodes.com/fr/tableau-de-couleur/tableau-de-couleur-design-plat/
!define C_GREY1 F8F9F9
!define C_GREY2 F2F3F4
!define C_GREY3 E5E7E9
!define C_GREY4 D7DBDD
!define C_GREY5 CACFD2
!define C_GREY6 BDC3C7
!define C_LINK 3498DB
!define C_USE 27AE60

skinparam Shadowing false
skinparam ClassFontStyle italic
skinparam ClassBorderColor #D4AC0D
skinparam stereotypeABorderColor #A9DCDF
skinparam stereotypeIBorderColor #B4A7E5
skinparam stereotypeCBorderColor #ADD1B2
skinparam stereotypeEBorderColor #EB93DF
' Red
skinparam ClassBackgroundColor<<red>> #FDEDEC
skinparam ClassBorderColor<<red>> #E74C3C
hide <<red>> stereotype
' Purple
skinparam ClassBackgroundColor<<purple>> #F4ECF7
skinparam ClassBorderColor<<purple>> #8E44AD
hide <<purple>> stereotype
' blue
skinparam ClassBackgroundColor<<blue>> #EBF5FB
skinparam ClassBorderColor<<blue>> #3498DB
hide <<blue>> stereotype
' Green
skinparam ClassBackgroundColor<<green>> #E9F7EF
skinparam ClassBorderColor<<green>> #27AE60
hide <<green>> stereotype
' Grey
skinparam ClassBackgroundColor<<grey>> #EAECEE
skinparam ClassBorderColor<<grey>> #2C3E50
hide <<grey>> stereotype

' == CONTENT ==

legend top
    __Colors legend__ :
    * __Keyple Distributed solution usage modes__ :
    ** <back:lightGreen>**Reader Client Side**</back> (Remote Plugin on **Server**)
    ** <back:plum>**Reader Server Side**</back> (Remote Plugin on **Client** with **Plugin** or **ObservablePlugin**)
    ** <back:lightBlue>**Reader Server Side**</back> (Remote Plugin on **Client** with **PoolPlugin**)
end legend

package "org.eclipse.keyple.core.distributed.remote" as api {
    +class "**final** DistributedRemoteApiProperties" as ApiProperties {
        +{static} **final** String VERSION
    }
    +interface RemotePluginApi {
        .. <back:plum>**Reader Server Side**</back> ..
        +void onReaderEvent (String jsonData)
    }
    +interface ObservableRemotePluginApi {
        .. <back:lightGreen>**Reader Client Side**</back> ..
        +void addRemoteReader (RemoteReaderSpi remoteReaderSpi)
        +void removeRemoteReader (Sting remoteReaderName)
        .. <back:plum>**Reader Server Side**</back> ..
        +void onPluginEvent (String jsonData)
    }
    package spi {
        ' Factories
        +interface RemotePluginFactorySpi {
            +String getDistributedRemoteApiVersion ()
            +String getCommonApiVersion ()
            +String getRemotePluginName ()
            +AbstractRemotePluginSpi getRemotePlugin ()
        }
        ' Plugins
        +interface AbstractRemotePluginSpi {
            +String getName ()
            +String executeRemotely (String jsonData)
            +void onUnregister ()
        }
        +interface RemotePluginSpi extends AbstractRemotePluginSpi {
            .. <back:plum>**Reader Server Side**</back> ..
            +void connect (RemotePluginApi remotePluginApi)
            +RemoteReaderSpi createRemoteReader (String remoteReaderName, String localReaderName)
            +ObservableRemoteReaderSpi createObservableRemoteReader (String remoteReaderName, String localReaderName)
        }
        +interface ObservableRemotePluginSpi extends RemotePluginSpi {
            .. <back:lightGreen>**Reader Client Side**</back> & <back:plum>**Reader Server Side**</back> ..
            +void connect (ObservableRemotePluginApi observableRemotePluginApi)
            .. <back:plum>**Reader Server Side**</back> ..
            +void onStartObservation ()
            +void onStopObservation ()
        }
        +interface RemotePoolPluginSpi extends AbstractRemotePluginSpi {
            .. <back:lightBlue>**Pool Reader Server Side**</back> ..
            +RemoteReaderSpi createRemoteReader (String remoteReaderName, String localReaderName)
        }
        ' Readers
        +interface RemoteReaderSpi {
            +String getName ()
            +String executeRemotely (String jsonData)
        }
        +interface ObservableRemoteReaderSpi extends RemoteReaderSpi {
            .. <back:plum>**Reader Server Side**</back> ..
            +void onStartObservation ()
            +void onStopObservation ()
        }
    }
}

' Associations

RemotePluginFactorySpi .left.> ApiProperties #C_LINK : provide\nAPI version <
RemotePluginFactorySpi ..> AbstractRemotePluginSpi #C_LINK : provide >

RemotePluginSpi .left.> RemotePluginApi #C_USE : use >
RemotePluginSpi ..> RemoteReaderSpi #C_LINK : create >
RemotePluginSpi ..> ObservableRemoteReaderSpi #C_LINK : create >

ObservableRemotePluginSpi .left.> ObservableRemotePluginApi #C_USE : use >

RemotePoolPluginSpi ..> RemoteReaderSpi #C_LINK : create >

' == LAYOUT ==

ObservableRemotePluginSpi -[hidden]- RemoteReaderSpi

' == STYLE ==

package api #C_GREY1 {}
package spi #C_GREY2 {}

@enduml

@startuml
title
    Keyple - keyple-distributed-remote-java-api - 2.0.+ (23/08/2021)
end title



skinparam Shadowing false
skinparam ClassFontStyle italic
skinparam ClassBorderColor #D4AC0D
skinparam stereotypeABorderColor #A9DCDF
skinparam stereotypeIBorderColor #B4A7E5
skinparam stereotypeCBorderColor #ADD1B2
skinparam stereotypeEBorderColor #EB93DF
skinparam ClassBackgroundColor<<red>> #FDEDEC
skinparam ClassBorderColor<<red>> #E74C3C
hide <<red>> stereotype
skinparam ClassBackgroundColor<<purple>> #F4ECF7
skinparam ClassBorderColor<<purple>> #8E44AD
hide <<purple>> stereotype
skinparam ClassBackgroundColor<<blue>> #EBF5FB
skinparam ClassBorderColor<<blue>> #3498DB
hide <<blue>> stereotype
skinparam ClassBackgroundColor<<green>> #E9F7EF
skinparam ClassBorderColor<<green>> #27AE60
hide <<green>> stereotype
skinparam ClassBackgroundColor<<grey>> #EAECEE
skinparam ClassBorderColor<<grey>> #2C3E50
hide <<grey>> stereotype


legend top
    __Colors legend__ :
    * __Keyple Distributed solution usage modes__ :
    ** <back:lightGreen>**Reader Client Side**</back> (Remote Plugin on **Server**)
    ** <back:plum>**Reader Server Side**</back> (Remote Plugin on **Client** with **Plugin** or **ObservablePlugin**)
    ** <back:lightBlue>**Reader Server Side**</back> (Remote Plugin on **Client** with **PoolPlugin**)
end legend

package "org.eclipse.keyple.core.distributed.remote" as api {
    +class "**final** DistributedRemoteApiProperties" as ApiProperties {
        +{static} **final** String VERSION
    }
    +interface RemotePluginApi {
        .. <back:plum>**Reader Server Side**</back> ..
        +void onReaderEvent (String jsonData)
    }
    +interface ObservableRemotePluginApi {
        .. <back:lightGreen>**Reader Client Side**</back> ..
        +void addRemoteReader (RemoteReaderSpi remoteReaderSpi)
        +void removeRemoteReader (Sting remoteReaderName)
        .. <back:plum>**Reader Server Side**</back> ..
        +void onPluginEvent (String jsonData)
    }
    package spi {
        +interface RemotePluginFactorySpi {
            +String getDistributedRemoteApiVersion ()
            +String getCommonApiVersion ()
            +String getRemotePluginName ()
            +AbstractRemotePluginSpi getRemotePlugin ()
        }
        +interface AbstractRemotePluginSpi {
            +String getName ()
            +String executeRemotely (String jsonData)
            +void onUnregister ()
        }
        +interface RemotePluginSpi extends AbstractRemotePluginSpi {
            .. <back:plum>**Reader Server Side**</back> ..
            +void connect (RemotePluginApi remotePluginApi)
            +RemoteReaderSpi createRemoteReader (String remoteReaderName, String localReaderName)
            +ObservableRemoteReaderSpi createObservableRemoteReader (String remoteReaderName, String localReaderName)
        }
        +interface ObservableRemotePluginSpi extends RemotePluginSpi {
            .. <back:lightGreen>**Reader Client Side**</back> & <back:plum>**Reader Server Side**</back> ..
            +void connect (ObservableRemotePluginApi observableRemotePluginApi)
            .. <back:plum>**Reader Server Side**</back> ..
            +void onStartObservation ()
            +void onStopObservation ()
        }
        +interface RemotePoolPluginSpi extends AbstractRemotePluginSpi {
            .. <back:lightBlue>**Pool Reader Server Side**</back> ..
            +RemoteReaderSpi createRemoteReader (String remoteReaderName, String localReaderName)
        }
        +interface RemoteReaderSpi {
            +String getName ()
            +String executeRemotely (String jsonData)
        }
        +interface ObservableRemoteReaderSpi extends RemoteReaderSpi {
            .. <back:plum>**Reader Server Side**</back> ..
            +void onStartObservation ()
            +void onStopObservation ()
        }
    }
}


RemotePluginFactorySpi .left.> ApiProperties #3498DB : provide\nAPI version <
RemotePluginFactorySpi ..> AbstractRemotePluginSpi #3498DB : provide >

RemotePluginSpi .left.> RemotePluginApi #27AE60 : use >
RemotePluginSpi ..> RemoteReaderSpi #3498DB : create >
RemotePluginSpi ..> ObservableRemoteReaderSpi #3498DB : create >

ObservableRemotePluginSpi .left.> ObservableRemotePluginApi #27AE60 : use >

RemotePoolPluginSpi ..> RemoteReaderSpi #3498DB : create >


ObservableRemotePluginSpi -[hidden]- RemoteReaderSpi


package api #F8F9F9 {}
package spi #F2F3F4 {}

@enduml

PlantUML version 1.2021.7(Sun May 23 14:40:07 CEST 2021)
(GPL source distribution)
Java Runtime: OpenJDK Runtime Environment
JVM: OpenJDK 64-Bit Server VM
Default Encoding: Cp1252
Language: fr
Country: FR
--></g></svg>